<svg width="142" height="101" viewBox="0 0 142 101" fill="none" xmlns="http://www.w3.org/2000/svg">
<path d="M17.0117 52.79L52.9357 42.5954L61.0914 71.3345L25.1674 81.5291L17.0117 52.79Z" fill="#1C1C1D"/>
<path d="M2.88086 63.7119L18.2734 59.3438L22.7984 75.2891L7.4059 79.6573L2.88086 63.7119Z" fill="#1C1C1D"/>
<path d="M45.2939 76.0981L30.9121 80.1556L38.6603 92.9163C40.3441 95.6894 43.747 97.0014 46.9282 96.1037C51.4768 94.8203 53.5604 89.7125 51.1528 85.7477L45.2939 76.0981Z" fill="black"/>
<path d="M53.1289 42.8793L90.1491 11.377L109.156 79.962L61.2303 71.6276L53.1289 42.8793Z" fill="#1C1C1D"/>
<path d="M102.029 44.5126C102.897 42.9198 102.308 40.9257 100.716 40.0585C99.1228 39.1914 97.1286 39.7796 96.2615 41.3724C95.3944 42.9652 95.9826 44.9593 97.5754 45.8264C99.1681 46.6936 101.162 46.1053 102.029 44.5126Z" fill="url(#paint0_linear_1146_170)"/>
<path d="M4.65077 80.7941C5.06196 82.2533 6.3806 83.2055 7.81485 83.2051C8.1124 83.2051 8.41488 83.1641 8.7154 83.078L21.4883 79.4233L22.4049 82.6766C22.8161 84.1358 24.1348 85.0876 25.569 85.0876C25.8666 85.0876 26.169 85.0466 26.4695 84.9605L29.5752 84.0719L35.9986 95.0375C37.9258 98.3275 41.4005 100.247 45.0477 100.247C46.0215 100.247 47.0084 100.11 47.9806 99.8261C51.1227 98.9073 53.6161 96.6224 54.8224 93.5581C56.0284 90.4938 55.7663 87.1078 54.1035 84.2688L50.4839 78.0895L61.6948 74.8816L109.247 82.0233C111.57 82.3734 113.539 80.114 112.898 77.8377L106.824 56.2825C106.327 54.5208 104.507 53.4982 102.759 53.9983C101.011 54.4987 99.9963 56.3322 100.493 58.0939L105.174 74.7062L64.0634 68.5322L57.0665 43.7019L88.8216 16.678L92.4592 29.5873C92.9558 31.349 94.7753 32.3716 96.5235 31.8716C98.2718 31.3715 99.2866 29.5376 98.7904 27.776L93.7598 9.92321C93.4544 8.83999 92.6245 7.98646 91.5554 7.65749C90.4864 7.32819 89.3251 7.56879 88.4712 8.29557L51.7394 39.5547L16.5142 49.634C15.6748 49.8742 14.9641 50.4405 14.5391 51.2086C14.1141 51.9768 14.009 52.8836 14.2478 53.7295L15.1644 56.9828L2.39185 60.6376C1.55238 60.8779 0.841667 61.4441 0.416681 62.2123C-0.00830433 62.9804 -0.113402 63.8872 0.125365 64.7332L4.65077 80.7941ZM48.4351 87.6399C49.0568 88.7013 49.155 89.9672 48.7041 91.1133C48.2532 92.2591 47.3208 93.1136 46.1457 93.4572C44.4211 93.9609 42.5789 93.2252 41.6659 91.6667L36.1201 82.1994L43.9376 79.9624L48.4351 87.6399ZM51.0543 46.6448L57.4137 69.2123L27.8371 77.6752L21.4778 55.108L51.0543 46.6448ZM16.9622 63.3627L19.6901 73.0438L10.083 75.7927L7.35505 66.1116L16.9622 63.3627Z" fill="url(#paint1_linear_1146_170)"/>
<path d="M130.823 39.3907C131.121 39.3907 131.424 39.351 131.725 39.2675L139.585 37.0877C141.347 36.5993 142.371 34.8001 141.874 33.0695C141.377 31.3385 139.544 30.3314 137.784 30.8202L129.925 32.9999C128.163 33.4884 127.138 35.2876 127.635 37.0182C128.047 38.4534 129.377 39.3907 130.823 39.3907V39.3907Z" fill="url(#paint2_linear_1146_170)"/>
<path d="M113.499 13.3088C114.378 13.3088 115.257 12.9716 115.919 12.3003L121.723 6.4125C123.025 5.09308 122.996 2.98149 121.66 1.69669C120.324 0.41156 118.186 0.439852 116.885 1.75927L111.081 7.64703C109.779 8.96678 109.808 11.078 111.144 12.3632C111.8 12.9946 112.65 13.3088 113.499 13.3088V13.3088Z" fill="url(#paint3_linear_1146_170)"/>
<path d="M129.036 70.1117L136.922 72.1337C138.695 72.5883 140.535 71.4497 140.95 69.6548C141.354 67.9095 140.265 66.1059 138.547 65.6654L130.66 63.6433C128.893 63.1901 127.096 64.2707 126.647 66.057C126.199 67.8432 127.268 69.6585 129.036 70.1117Z" fill="url(#paint4_linear_1146_170)"/>
<defs>
<linearGradient id="paint0_linear_1146_170" x1="96.7887" y1="43.8515" x2="102.01" y2="40.015" gradientUnits="userSpaceOnUse">
<stop stop-color="#5465FF"/>
<stop offset="1" stop-color="#76F4C3"/>
</linearGradient>
<linearGradient id="paint1_linear_1146_170" x1="23.3773" y1="30.79" x2="116.207" y2="83.8515" gradientUnits="userSpaceOnUse">
<stop stop-color="#5465FF"/>
<stop offset="1" stop-color="#76F4C3"/>
</linearGradient>
<linearGradient id="paint2_linear_1146_170" x1="130.507" y1="32.879" x2="140.308" y2="40.5403" gradientUnits="userSpaceOnUse">
<stop stop-color="#5465FF"/>
<stop offset="1" stop-color="#76F4C3"/>
</linearGradient>
<linearGradient id="paint3_linear_1146_170" x1="112.721" y1="3.90311" x2="123.938" y2="9.16397" gradientUnits="userSpaceOnUse">
<stop stop-color="#5465FF"/>
<stop offset="1" stop-color="#76F4C3"/>
</linearGradient>
<linearGradient id="paint4_linear_1146_170" x1="129.542" y1="65.7223" x2="139.343" y2="73.3835" gradientUnits="userSpaceOnUse">
<stop stop-color="#5465FF"/>
<stop offset="1" stop-color="#76F4C3"/>
</linearGradient>
</defs>
</svg>
