<svg width="220" height="103" viewBox="0 0 220 103" fill="none" xmlns="http://www.w3.org/2000/svg">
<g clip-path="url(#clip0_1205_147)">
<path d="M135.275 58.8814C135.081 58.3446 134.49 58.0664 133.953 58.2598C133.416 58.4532 133.138 59.0451 133.331 59.5817C133.336 59.5949 133.341 59.6079 133.347 59.621C134.289 62.0793 134.357 63.9593 133.532 64.7856C132.533 65.7834 130.042 65.4715 126.869 63.9531C122.621 61.7472 118.759 58.8656 115.436 55.4211C107.345 47.3291 104.006 39.3889 106.071 37.3241C106.73 36.8038 107.586 36.6039 108.407 36.7787C108.976 36.8206 109.471 36.3932 109.513 35.8243C109.554 35.2744 109.155 34.7897 108.608 34.7232C107.172 34.4691 105.698 34.8878 104.61 35.8594C100.826 39.643 106.611 49.5127 113.975 56.8775C117.464 60.4878 121.518 63.5054 125.978 65.8113C126.785 66.198 127.618 66.531 128.469 66.8081L121.13 69.5908C111.33 65.865 104.275 57.177 102.641 46.8209C102.552 46.2573 102.024 45.872 101.46 45.9604C100.896 46.0489 100.511 46.5775 100.6 47.1411C100.762 48.174 100.979 49.2069 101.244 50.2172C103.623 59.2293 109.888 66.7162 118.339 70.6465L106.26 75.2172C106.205 75.1247 106.135 75.0418 106.053 74.9713C102.984 72.5066 101.057 68.892 100.723 64.9695L100.244 59.1654C100.206 58.6031 99.72 58.1778 99.1576 58.2155C99.1468 58.2163 99.1361 58.2171 99.1255 58.2182C98.5569 58.2634 98.1325 58.7612 98.1777 59.3298C98.1778 59.3321 98.1781 59.3346 98.1783 59.3369L98.6659 65.1389C99.029 69.3317 100.985 73.2258 104.131 76.0208L95.5144 79.2828L97.0638 72.9241C97.199 72.3695 96.8592 71.8104 96.3046 71.6753C95.75 71.5401 95.191 71.8799 95.0558 72.4345L93.0405 80.6979C92.9047 81.252 93.2438 81.8113 93.7979 81.947C94.0012 81.9968 94.2146 81.9837 94.4102 81.9095L132.629 67.4485C132.689 67.4188 132.747 67.3828 132.8 67.3411C133.627 67.214 134.394 66.8316 134.993 66.2472C136.017 65.2236 136.898 63.1133 135.275 58.8814Z" fill="url(#paint0_linear_1205_147)"/>
<path d="M145.023 56.2178C139.439 54.1274 133.403 53.5413 127.522 54.5186L123.831 55.1384C123.271 55.246 122.904 55.7874 123.012 56.3477C123.116 56.8889 123.626 57.2532 124.172 57.1753L127.862 56.5607C133.385 55.6423 139.054 56.1931 144.298 58.1576C144.414 58.1988 144.537 58.2195 144.66 58.2186C145.231 58.2195 145.694 57.7579 145.695 57.1873C145.695 56.7554 145.427 56.3687 145.023 56.2178Z" fill="url(#paint1_linear_1205_147)"/>
<path d="M148.695 40.2142C148.449 39.699 147.833 39.4803 147.318 39.7256L125.626 50.0549C125.111 50.3001 124.892 50.9164 125.138 51.4316C125.138 51.4317 125.138 51.4318 125.138 51.4318C125.383 51.9469 125.999 52.1657 126.514 51.9205C126.514 51.9205 126.514 51.9204 126.515 51.9204L148.206 41.5911C148.721 41.3458 148.94 40.7294 148.695 40.2142Z" fill="url(#paint2_linear_1205_147)"/>
<path d="M118.097 27.0101C117.984 26.451 117.438 26.0899 116.879 26.2035C116.32 26.3171 115.959 26.8624 116.073 27.4215C116.075 27.4339 116.078 27.4461 116.081 27.4584C117.388 33.2995 116.85 39.4026 114.539 44.9242L113.037 48.5281C112.82 49.0532 113.068 49.655 113.592 49.8751C113.717 49.9279 113.852 49.9549 113.988 49.9546C114.405 49.9546 114.781 49.7041 114.942 49.3193L116.445 45.7196C118.92 39.8049 119.498 33.2672 118.097 27.0101Z" fill="url(#paint3_linear_1205_147)"/>
<path d="M149.825 57.1855C148.113 57.1855 146.726 58.5729 146.726 60.2843C146.726 61.9958 148.113 63.3831 149.825 63.3831C151.536 63.3831 152.924 61.9958 152.924 60.2843C152.924 58.5729 151.536 57.1855 149.825 57.1855ZM149.825 61.3173C149.254 61.3173 148.792 60.8548 148.792 60.2843C148.792 59.7139 149.254 59.2514 149.825 59.2514C150.395 59.2514 150.858 59.7139 150.858 60.2843C150.858 60.8548 150.395 61.3173 149.825 61.3173Z" fill="url(#paint4_linear_1205_147)"/>
<path d="M125.034 28.2637C123.323 28.2637 121.936 29.651 121.936 31.3625C121.936 33.0739 123.323 34.4613 125.034 34.4613C126.746 34.4613 128.133 33.0739 128.133 31.3625C128.133 29.651 126.746 28.2637 125.034 28.2637ZM125.034 32.3954C124.464 32.3954 124.002 31.9329 124.002 31.3625C124.002 30.792 124.464 30.3295 125.034 30.3295C125.605 30.3295 126.067 30.792 126.067 31.3625C126.067 31.9329 125.605 32.3954 125.034 32.3954Z" fill="url(#paint5_linear_1205_147)"/>
<path d="M115.738 24.1317C116.879 24.1317 117.804 23.2068 117.804 22.0659C117.804 20.9249 116.879 20 115.738 20C114.597 20 113.672 20.9249 113.672 22.0659C113.672 23.2068 114.597 24.1317 115.738 24.1317Z" fill="url(#paint6_linear_1205_147)"/>
<path d="M144.66 25.165C144.09 25.165 143.627 25.6275 143.627 26.198V27.2309C143.627 27.8013 144.09 28.2638 144.66 28.2638C145.231 28.2638 145.693 27.8013 145.693 27.2309V26.198C145.693 25.6275 145.231 25.165 144.66 25.165Z" fill="url(#paint7_linear_1205_147)"/>
<path d="M144.66 20C144.09 20 143.627 20.4625 143.627 21.0329V22.0659C143.627 22.6363 144.09 23.0988 144.66 23.0988C145.231 23.0988 145.693 22.6363 145.693 22.0659V21.0329C145.693 20.4625 145.231 20 144.66 20Z" fill="url(#paint8_linear_1205_147)"/>
<path d="M147.759 23.0986H146.726C146.156 23.0986 145.693 23.5611 145.693 24.1316C145.693 24.702 146.156 25.1645 146.726 25.1645H147.759C148.329 25.1645 148.792 24.702 148.792 24.1316C148.792 23.5611 148.329 23.0986 147.759 23.0986Z" fill="url(#paint9_linear_1205_147)"/>
<path d="M142.594 23.0986H141.561C140.991 23.0986 140.528 23.5611 140.528 24.1316C140.528 24.702 140.991 25.1645 141.561 25.1645H142.594C143.165 25.1645 143.627 24.702 143.627 24.1316C143.627 23.5611 143.165 23.0986 142.594 23.0986Z" fill="url(#paint10_linear_1205_147)"/>
<path d="M137.43 31.3408H132.243C131.673 31.3408 131.21 31.8033 131.21 32.3738V37.5601C131.21 38.1305 131.673 38.593 132.243 38.593H137.43C138 38.593 138.463 38.1305 138.463 37.5601V32.3738C138.463 31.8033 138 31.3408 137.43 31.3408ZM136.397 36.5272H133.276V33.4067H136.397V36.5272Z" fill="url(#paint11_linear_1205_147)"/>
<path d="M129.905 39.9664C129.526 39.5616 128.894 39.5286 128.475 39.8915L118.146 49.1879C117.722 49.5696 117.688 50.2225 118.069 50.6464C118.451 51.0702 119.104 51.1044 119.528 50.7228L129.857 41.4265C130.274 41.0364 130.295 40.3828 129.905 39.9664Z" fill="url(#paint12_linear_1205_147)"/>
<path d="M148.792 43.7578C148.221 43.7578 147.759 44.2203 147.759 44.7907V45.8237C147.759 46.3941 148.221 46.8566 148.792 46.8566C149.362 46.8566 149.825 46.3941 149.825 45.8237V44.7907C149.825 44.2203 149.362 43.7578 148.792 43.7578Z" fill="url(#paint13_linear_1205_147)"/>
<path d="M153.175 43.5799L152.444 42.8496C152.034 42.4532 151.38 42.4646 150.984 42.8749C150.597 43.2752 150.597 43.9098 150.984 44.3102L151.714 45.0404C152.124 45.4368 152.778 45.4255 153.175 45.0151C153.561 44.6147 153.561 43.9801 153.175 43.5799Z" fill="url(#paint14_linear_1205_147)"/>
<path d="M153.956 39.626H152.924C152.353 39.626 151.891 40.0885 151.891 40.6589C151.891 41.2293 152.353 41.6918 152.924 41.6918H153.956C154.527 41.6918 154.989 41.2293 154.989 40.6589C154.989 40.0885 154.527 39.626 153.956 39.626Z" fill="url(#paint15_linear_1205_147)"/>
<path d="M153.149 36.2772C152.749 35.8907 152.114 35.8907 151.714 36.2772L150.984 37.0075C150.58 37.411 150.58 38.065 150.984 38.4683C151.178 38.6619 151.44 38.7707 151.714 38.7707C151.988 38.7707 152.251 38.6618 152.444 38.4681L153.175 37.7378C153.571 37.3275 153.56 36.6735 153.149 36.2772Z" fill="url(#paint16_linear_1205_147)"/>
<path d="M148.792 34.4609C148.221 34.4609 147.759 34.9234 147.759 35.4939V36.5268C147.759 37.0972 148.221 37.5597 148.792 37.5597C149.362 37.5597 149.825 37.0972 149.825 36.5268V35.4939C149.825 34.9234 149.362 34.4609 148.792 34.4609Z" fill="url(#paint17_linear_1205_147)"/>
<path d="M146.6 37.0076L145.87 36.2773C145.459 35.881 144.805 35.8923 144.409 36.3026C144.023 36.7028 144.023 37.3375 144.409 37.7378L145.139 38.4681C145.55 38.8645 146.204 38.8531 146.6 38.4428C146.987 38.0424 146.987 37.4078 146.6 37.0076Z" fill="url(#paint18_linear_1205_147)"/>
<path d="M105.358 24.4667C105.236 24.093 104.913 23.8208 104.525 23.7643L101.493 23.3232L100.141 20.5767C99.8394 20.065 99.1803 19.8944 98.6686 20.1958C98.5113 20.2883 98.3803 20.4194 98.2877 20.5767L96.9294 23.3232L93.8978 23.7643C93.3331 23.8458 92.9415 24.3696 93.023 24.9342C93.0554 25.159 93.161 25.3668 93.3234 25.5254L95.5164 27.6636L94.9999 30.6829C94.9007 31.2446 95.2757 31.7805 95.8375 31.8796C96.0637 31.9195 96.2966 31.883 96.4997 31.7757L99.2112 30.3461L101.923 31.7716C102.428 32.037 103.052 31.843 103.318 31.338C103.423 31.137 103.46 30.9067 103.421 30.6829L102.905 27.6636L105.099 25.5254C105.38 25.2505 105.48 24.8402 105.358 24.4667ZM101.07 26.5635C100.827 26.8005 100.716 27.1418 100.773 27.4766L101.029 28.9692L99.6915 28.2637C99.3908 28.1058 99.0315 28.1058 98.7308 28.2637L97.388 28.9682L97.6442 27.4756C97.7022 27.1421 97.5929 26.8012 97.3519 26.5635L96.2663 25.5068L97.765 25.2889C98.1015 25.2401 98.3924 25.0287 98.5428 24.7239L99.2112 23.3676L99.8805 24.7239C100.031 25.0285 100.321 25.2397 100.657 25.2889L102.155 25.5068L101.07 26.5635Z" fill="url(#paint19_linear_1205_147)"/>
<path d="M151.5 71.7756H151.496L151.07 71.1372C148.684 67.5688 144.932 65.1425 140.699 64.4304C140.134 64.3498 139.611 64.7424 139.53 65.3071C139.452 65.8528 139.817 66.3634 140.358 66.4673C143.411 66.9856 146.194 68.5368 148.24 70.8614C146.52 71.1709 145.015 72.2042 144.109 73.6989C142.996 75.6913 143.709 78.2082 145.702 79.3206C147.694 80.4331 150.211 79.7197 151.324 77.7273C151.748 76.9071 151.978 75.9995 151.994 75.0758C153.093 76.6721 153.181 78.7566 152.22 80.4398C151.929 80.9304 152.091 81.5642 152.582 81.8552C153.072 82.1462 153.706 81.9844 153.997 81.4938C154.006 81.478 154.015 81.4621 154.024 81.4459C155.915 78.0677 154.801 73.799 151.5 71.7756ZM149.522 76.7192C148.971 77.7182 147.714 78.081 146.715 77.5296C145.716 76.9783 145.353 75.7216 145.905 74.7228C145.908 74.7172 145.911 74.7116 145.914 74.706C146.524 73.7079 147.552 73.0389 148.711 72.886C148.891 72.8811 149.069 72.9224 149.228 73.0058C150.1 73.4923 150.146 75.6016 149.522 76.7192Z" fill="url(#paint20_linear_1205_147)"/>
</g>
<path d="M211.71 3.99866C210.58 4.79008 210.305 6.34826 211.096 7.479C211.887 8.60974 213.446 8.8848 214.576 8.09338C215.707 7.30195 215.982 5.74377 215.191 4.61303C214.399 3.48229 212.841 3.20723 211.71 3.99866ZM213.621 6.72847C213.244 6.99226 212.725 6.90056 212.461 6.52368C212.197 6.14679 212.289 5.62735 212.666 5.36356C213.043 5.09977 213.562 5.19147 213.826 5.56835C214.09 5.94524 213.998 6.46468 213.621 6.72847Z" fill="url(#paint21_linear_1205_147)"/>
<path d="M66.0474 1.43323C64.9166 2.22465 64.6416 3.78283 65.433 4.91357C66.2244 6.04431 67.7826 6.31937 68.9133 5.52795C70.0441 4.73652 70.3191 3.17834 69.5277 2.0476C68.7363 0.916861 67.1781 0.6418 66.0474 1.43323ZM67.958 4.16304C67.5811 4.42683 67.0617 4.33513 66.7979 3.95825C66.5341 3.58136 66.6258 3.06192 67.0027 2.79813C67.3796 2.53434 67.899 2.62604 68.1628 3.00292C68.4266 3.37981 68.3349 3.89925 67.958 4.16304Z" fill="url(#paint22_linear_1205_147)"/>
<path d="M66.0474 62.4332C64.9166 63.2247 64.6416 64.7828 65.433 65.9136C66.2244 67.0443 67.7826 67.3194 68.9133 66.5279C70.0441 65.7365 70.3191 64.1783 69.5277 63.0476C68.7363 61.9169 67.1781 61.6418 66.0474 62.4332ZM67.958 65.163C67.5811 65.4268 67.0617 65.3351 66.7979 64.9582C66.5341 64.5814 66.6258 64.0619 67.0027 63.7981C67.3796 63.5343 67.899 63.626 68.1628 64.0029C68.4266 64.3798 68.3349 64.8993 67.958 65.163Z" fill="url(#paint23_linear_1205_147)"/>
<path d="M42.4055 32.4373C39.4417 34.5117 38.7207 38.596 40.7951 41.5598C42.8696 44.5236 46.9538 45.2446 49.9176 43.1701C52.8814 41.0957 53.6024 37.0115 51.528 34.0477C49.4535 31.0838 45.3693 30.3629 42.4055 32.4373ZM47.4136 39.5925C46.4257 40.284 45.0642 40.0436 44.3727 39.0557C43.6813 38.0679 43.9217 36.7063 44.9095 36.0149C45.8974 35.3235 47.2589 35.5638 47.9504 36.5517C48.6418 37.5396 48.4014 38.9011 47.4136 39.5925Z" fill="url(#paint24_linear_1205_147)"/>
<path d="M167.201 2.94344C166.948 2.7528 166.608 2.72243 166.325 2.86484L164.118 3.97537L161.955 2.78599C161.519 2.58727 161.005 2.77939 160.806 3.21512C160.745 3.34901 160.719 3.4962 160.73 3.64291L161.103 6.08568L159.304 7.77903C158.969 8.09396 158.952 8.62114 159.267 8.95651C159.393 9.09004 159.558 9.17846 159.739 9.20819L162.177 9.60679L163.232 11.8404C163.426 12.2575 163.921 12.4381 164.338 12.2438C164.506 12.1656 164.643 12.0337 164.728 11.8689L165.858 9.67053L168.309 9.35845C168.765 9.30032 169.088 8.8833 169.03 8.42691C169.007 8.24519 168.925 8.07625 168.796 7.94606L167.058 6.19008L167.519 3.76284C167.577 3.45136 167.454 3.13381 167.201 2.94344ZM165.338 6.31159C165.286 6.58062 165.371 6.85758 165.563 7.05245L166.423 7.92013L165.213 8.07259C164.941 8.10732 164.704 8.27343 164.578 8.51681L164.017 9.60321L163.496 8.4986C163.38 8.25145 163.15 8.07675 162.881 8.03117L161.675 7.83505L162.564 6.99796C162.764 6.81012 162.858 6.53595 162.817 6.26498L162.631 5.05987L163.701 5.64641C163.941 5.77815 164.23 5.78343 164.475 5.66051L165.565 5.1119L165.338 6.31159Z" fill="url(#paint25_linear_1205_147)"/>
<path d="M216.201 54.9434C215.948 54.7528 215.608 54.7224 215.325 54.8648L213.118 55.9754L210.955 54.786C210.519 54.5873 210.005 54.7794 209.806 55.2151C209.745 55.349 209.719 55.4962 209.73 55.6429L210.103 58.0857L208.304 59.779C207.969 60.094 207.952 60.6211 208.267 60.9565C208.393 61.09 208.558 61.1785 208.739 61.2082L211.177 61.6068L212.232 63.8404C212.426 64.2575 212.921 64.4381 213.338 64.2438C213.506 64.1656 213.643 64.0337 213.728 63.8689L214.858 61.6705L217.309 61.3585C217.765 61.3003 218.088 60.8833 218.03 60.4269C218.007 60.2452 217.925 60.0762 217.796 59.9461L216.058 58.1901L216.519 55.7628C216.577 55.4514 216.454 55.1338 216.201 54.9434ZM214.338 58.3116C214.286 58.5806 214.371 58.8576 214.563 59.0524L215.423 59.9201L214.213 60.0726C213.941 60.1073 213.704 60.2734 213.578 60.5168L213.017 61.6032L212.496 60.4986C212.38 60.2514 212.15 60.0767 211.881 60.0312L210.675 59.835L211.564 58.998C211.764 58.8101 211.858 58.5359 211.817 58.265L211.631 57.0599L212.701 57.6464C212.941 57.7781 213.23 57.7834 213.475 57.6605L214.565 57.1119L214.338 58.3116Z" fill="url(#paint26_linear_1205_147)"/>
<path d="M179.961 38L179.962 37.9969L180.568 37.8686C183.953 37.1454 186.891 35.0581 188.687 32.0989C188.916 31.6998 188.778 31.1908 188.379 30.9619C187.993 30.7408 187.502 30.8613 187.263 31.2358C185.963 33.3688 183.971 34.9908 181.619 35.8304C181.9 34.449 181.575 33.0133 180.726 31.8882C179.565 30.4602 177.466 30.2437 176.038 31.4045C174.61 32.5654 174.394 34.6639 175.555 36.0919C176.043 36.655 176.654 37.0977 177.341 37.3853C175.817 37.7324 174.229 37.1763 173.255 35.9543C172.974 35.5899 172.451 35.522 172.087 35.8028C171.722 36.0835 171.654 36.6066 171.935 36.971C171.944 36.9827 171.953 36.9941 171.963 37.0054C173.93 39.4303 177.46 39.8693 179.961 38ZM176.848 35.043C176.264 34.3319 176.367 33.2821 177.078 32.6982C177.789 32.1143 178.839 32.2174 179.423 32.9285C179.426 32.9324 179.429 32.9365 179.432 32.9404C179.998 33.6949 180.193 34.6649 179.961 35.5792C179.912 35.7152 179.828 35.8361 179.718 35.9304C179.093 36.4384 177.499 35.8439 176.848 35.043Z" fill="url(#paint27_linear_1205_147)"/>
<path d="M8.85454 90.6228L8.85341 90.6259L8.25278 90.7744C4.89326 91.6099 2.02702 93.794 0.330087 96.8114C0.114647 97.2179 0.269521 97.7221 0.676018 97.9376C1.06876 98.1457 1.55574 98.0089 1.78249 97.6266C3.01 95.4515 4.94727 93.764 7.27021 92.8465C7.03496 94.2365 7.40785 95.6605 8.29424 96.7567C9.50201 98.1452 11.6066 98.2916 12.9951 97.0838C14.3836 95.8761 14.53 93.7715 13.3222 92.383C12.8159 91.8365 12.19 91.4144 11.4935 91.1499C13.005 90.7521 14.6107 91.255 15.6253 92.4438C15.918 92.7987 16.4431 92.8491 16.7979 92.5564C17.1528 92.2636 17.2032 91.7386 16.9105 91.3837C16.901 91.3723 16.8914 91.3612 16.8814 91.3503C14.8349 88.9923 11.2916 88.6712 8.85454 90.6228ZM12.0651 93.4744C12.6724 94.1657 12.6043 95.2183 11.9131 95.8256C11.2218 96.4328 10.1692 96.3648 9.56191 95.6736C9.55855 95.6697 9.55509 95.6658 9.55172 95.6619C8.96098 94.9267 8.73423 93.9638 8.93504 93.0423C8.98039 92.9047 9.06032 92.7811 9.16707 92.6831C9.77441 92.1546 11.3875 92.6956 12.0651 93.4744Z" fill="url(#paint28_linear_1205_147)"/>
<defs>
<linearGradient id="paint0_linear_1205_147" x1="114.591" y1="34.6504" x2="114.591" y2="81.9767" gradientUnits="userSpaceOnUse">
<stop stop-color="#5465FF"/>
<stop offset="1" stop-color="#76F4C3"/>
</linearGradient>
<linearGradient id="paint1_linear_1205_147" x1="134.344" y1="54.0586" x2="134.344" y2="58.2186" gradientUnits="userSpaceOnUse">
<stop stop-color="#5465FF"/>
<stop offset="1" stop-color="#76F4C3"/>
</linearGradient>
<linearGradient id="paint2_linear_1205_147" x1="136.916" y1="39.625" x2="136.916" y2="52.021" gradientUnits="userSpaceOnUse">
<stop stop-color="#5465FF"/>
<stop offset="1" stop-color="#76F4C3"/>
</linearGradient>
<linearGradient id="paint3_linear_1205_147" x1="115.901" y1="26.1826" x2="115.901" y2="49.9546" gradientUnits="userSpaceOnUse">
<stop stop-color="#5465FF"/>
<stop offset="1" stop-color="#76F4C3"/>
</linearGradient>
<linearGradient id="paint4_linear_1205_147" x1="149.825" y1="57.1855" x2="149.825" y2="63.3831" gradientUnits="userSpaceOnUse">
<stop stop-color="#5465FF"/>
<stop offset="1" stop-color="#76F4C3"/>
</linearGradient>
<linearGradient id="paint5_linear_1205_147" x1="125.034" y1="28.2637" x2="125.034" y2="34.4613" gradientUnits="userSpaceOnUse">
<stop stop-color="#5465FF"/>
<stop offset="1" stop-color="#76F4C3"/>
</linearGradient>
<linearGradient id="paint6_linear_1205_147" x1="115.738" y1="20" x2="115.738" y2="24.1317" gradientUnits="userSpaceOnUse">
<stop stop-color="#5465FF"/>
<stop offset="1" stop-color="#76F4C3"/>
</linearGradient>
<linearGradient id="paint7_linear_1205_147" x1="144.66" y1="25.165" x2="144.66" y2="28.2638" gradientUnits="userSpaceOnUse">
<stop stop-color="#5465FF"/>
<stop offset="1" stop-color="#76F4C3"/>
</linearGradient>
<linearGradient id="paint8_linear_1205_147" x1="144.66" y1="20" x2="144.66" y2="23.0988" gradientUnits="userSpaceOnUse">
<stop stop-color="#5465FF"/>
<stop offset="1" stop-color="#76F4C3"/>
</linearGradient>
<linearGradient id="paint9_linear_1205_147" x1="147.242" y1="23.0986" x2="147.242" y2="25.1645" gradientUnits="userSpaceOnUse">
<stop stop-color="#5465FF"/>
<stop offset="1" stop-color="#76F4C3"/>
</linearGradient>
<linearGradient id="paint10_linear_1205_147" x1="142.078" y1="23.0986" x2="142.078" y2="25.1645" gradientUnits="userSpaceOnUse">
<stop stop-color="#5465FF"/>
<stop offset="1" stop-color="#76F4C3"/>
</linearGradient>
<linearGradient id="paint11_linear_1205_147" x1="134.836" y1="31.3408" x2="134.836" y2="38.593" gradientUnits="userSpaceOnUse">
<stop stop-color="#5465FF"/>
<stop offset="1" stop-color="#76F4C3"/>
</linearGradient>
<linearGradient id="paint12_linear_1205_147" x1="123.994" y1="39.6396" x2="123.994" y2="50.988" gradientUnits="userSpaceOnUse">
<stop stop-color="#5465FF"/>
<stop offset="1" stop-color="#76F4C3"/>
</linearGradient>
<linearGradient id="paint13_linear_1205_147" x1="148.792" y1="43.7578" x2="148.792" y2="46.8566" gradientUnits="userSpaceOnUse">
<stop stop-color="#5465FF"/>
<stop offset="1" stop-color="#76F4C3"/>
</linearGradient>
<linearGradient id="paint14_linear_1205_147" x1="152.079" y1="42.5596" x2="152.079" y2="45.3305" gradientUnits="userSpaceOnUse">
<stop stop-color="#5465FF"/>
<stop offset="1" stop-color="#76F4C3"/>
</linearGradient>
<linearGradient id="paint15_linear_1205_147" x1="153.44" y1="39.626" x2="153.44" y2="41.6918" gradientUnits="userSpaceOnUse">
<stop stop-color="#5465FF"/>
<stop offset="1" stop-color="#76F4C3"/>
</linearGradient>
<linearGradient id="paint16_linear_1205_147" x1="152.073" y1="35.9873" x2="152.073" y2="38.7707" gradientUnits="userSpaceOnUse">
<stop stop-color="#5465FF"/>
<stop offset="1" stop-color="#76F4C3"/>
</linearGradient>
<linearGradient id="paint17_linear_1205_147" x1="148.792" y1="34.4609" x2="148.792" y2="37.5597" gradientUnits="userSpaceOnUse">
<stop stop-color="#5465FF"/>
<stop offset="1" stop-color="#76F4C3"/>
</linearGradient>
<linearGradient id="paint18_linear_1205_147" x1="145.505" y1="35.9873" x2="145.505" y2="38.7581" gradientUnits="userSpaceOnUse">
<stop stop-color="#5465FF"/>
<stop offset="1" stop-color="#76F4C3"/>
</linearGradient>
<linearGradient id="paint19_linear_1205_147" x1="99.2107" y1="20.0469" x2="99.2107" y2="31.8954" gradientUnits="userSpaceOnUse">
<stop stop-color="#5465FF"/>
<stop offset="1" stop-color="#76F4C3"/>
</linearGradient>
<linearGradient id="paint20_linear_1205_147" x1="147.232" y1="64.4199" x2="147.232" y2="81.9999" gradientUnits="userSpaceOnUse">
<stop stop-color="#5465FF"/>
<stop offset="1" stop-color="#76F4C3"/>
</linearGradient>
<linearGradient id="paint21_linear_1205_147" x1="211.71" y1="3.99866" x2="214.576" y2="8.09338" gradientUnits="userSpaceOnUse">
<stop stop-color="#5465FF"/>
<stop offset="1" stop-color="#76F4C3"/>
</linearGradient>
<linearGradient id="paint22_linear_1205_147" x1="66.0474" y1="1.43323" x2="68.9133" y2="5.52795" gradientUnits="userSpaceOnUse">
<stop stop-color="#5465FF"/>
<stop offset="1" stop-color="#76F4C3"/>
</linearGradient>
<linearGradient id="paint23_linear_1205_147" x1="66.0474" y1="62.4332" x2="68.9133" y2="66.5279" gradientUnits="userSpaceOnUse">
<stop stop-color="#5465FF"/>
<stop offset="1" stop-color="#76F4C3"/>
</linearGradient>
<linearGradient id="paint24_linear_1205_147" x1="42.4055" y1="32.4373" x2="49.9176" y2="43.1701" gradientUnits="userSpaceOnUse">
<stop stop-color="#5465FF"/>
<stop offset="1" stop-color="#76F4C3"/>
</linearGradient>
<linearGradient id="paint25_linear_1205_147" x1="161.095" y1="2.86604" x2="166.574" y2="10.6943" gradientUnits="userSpaceOnUse">
<stop stop-color="#5465FF"/>
<stop offset="1" stop-color="#76F4C3"/>
</linearGradient>
<linearGradient id="paint26_linear_1205_147" x1="210.095" y1="54.866" x2="215.574" y2="62.6943" gradientUnits="userSpaceOnUse">
<stop stop-color="#5465FF"/>
<stop offset="1" stop-color="#76F4C3"/>
</linearGradient>
<linearGradient id="paint27_linear_1205_147" x1="186.746" y1="36.9967" x2="173.575" y2="31.7514" gradientUnits="userSpaceOnUse">
<stop stop-color="#5465FF"/>
<stop offset="1" stop-color="#76F4C3"/>
</linearGradient>
<linearGradient id="paint28_linear_1205_147" x1="2.10712" y1="91.8517" x2="15.446" y2="96.6551" gradientUnits="userSpaceOnUse">
<stop stop-color="#5465FF"/>
<stop offset="1" stop-color="#76F4C3"/>
</linearGradient>
<clipPath id="clip0_1205_147">
<rect width="62" height="62" fill="white" transform="translate(93 20)"/>
</clipPath>
</defs>
</svg>
