<svg width="22" height="21" viewBox="0 0 22 21" fill="none" xmlns="http://www.w3.org/2000/svg">
<path d="M15.9981 20.1665C15.8441 20.1665 15.6865 20.1472 15.5307 20.106L1.35623 16.3101C0.384566 16.0424 -0.194767 15.0359 0.0600664 14.0642L1.84848 7.39822C1.91448 7.15347 2.16565 7.01139 2.40948 7.07372C2.65423 7.1388 2.79907 7.39089 2.73398 7.63472L0.946483 14.2989C0.819066 14.7847 1.11057 15.2907 1.59732 15.4255L15.7662 19.2196C16.253 19.3479 16.7553 19.0582 16.8818 18.5742L17.5977 15.9214C17.6637 15.6766 17.9149 15.5309 18.1597 15.5978C18.4044 15.6638 18.5483 15.9159 18.4832 16.1597L17.7682 18.8089C17.5528 19.6247 16.8103 20.1665 15.9981 20.1665V20.1665Z" fill="#4759FA"/>
<path d="M20.166 14.6667H5.49935C4.48827 14.6667 3.66602 13.8444 3.66602 12.8333V1.83333C3.66602 0.82225 4.48827 0 5.49935 0H20.166C21.1771 0 21.9993 0.82225 21.9993 1.83333V12.8333C21.9993 13.8444 21.1771 14.6667 20.166 14.6667ZM5.49935 0.916667C4.99427 0.916667 4.58268 1.32825 4.58268 1.83333V12.8333C4.58268 13.3384 4.99427 13.75 5.49935 13.75H20.166C20.6711 13.75 21.0827 13.3384 21.0827 12.8333V1.83333C21.0827 1.32825 20.6711 0.916667 20.166 0.916667H5.49935Z" fill="#4759FA"/>
<path d="M8.24935 6.41667C7.23827 6.41667 6.41602 5.59442 6.41602 4.58333C6.41602 3.57225 7.23827 2.75 8.24935 2.75C9.26043 2.75 10.0827 3.57225 10.0827 4.58333C10.0827 5.59442 9.26043 6.41667 8.24935 6.41667ZM8.24935 3.66667C7.74427 3.66667 7.33268 4.07825 7.33268 4.58333C7.33268 5.08842 7.74427 5.5 8.24935 5.5C8.75443 5.5 9.16602 5.08842 9.16602 4.58333C9.16602 4.07825 8.75443 3.66667 8.24935 3.66667Z" fill="#4759FA"/>
<path d="M4.18854 13.6857C4.07121 13.6857 3.95388 13.6408 3.86404 13.5519C3.68529 13.3732 3.68529 13.0826 3.86404 12.9038L8.19346 8.5744C8.71229 8.05557 9.61888 8.05557 10.1377 8.5744L11.4265 9.86324L14.9942 5.5824C15.2536 5.27165 15.635 5.09107 16.041 5.0874H16.0511C16.4526 5.0874 16.833 5.26157 17.0952 5.56682L21.8894 11.1603C22.0544 11.3519 22.0324 11.6416 21.8399 11.8066C21.6483 11.9716 21.3595 11.9505 21.1936 11.7571L16.3995 6.16357C16.3105 6.0609 16.1877 6.00407 16.0511 6.00407C15.9558 5.99582 15.788 6.06182 15.6991 6.16907L11.8097 10.8358C11.7272 10.9348 11.6071 10.9944 11.4779 10.9999C11.3477 11.0091 11.224 10.9577 11.1332 10.8661L9.48963 9.22249C9.31638 9.05015 9.01479 9.05015 8.84154 9.22249L4.51213 13.5519C4.42321 13.6408 4.30588 13.6857 4.18854 13.6857V13.6857Z" fill="#4759FA"/>
</svg>
