<svg width="95" height="96" viewBox="0 0 95 96" fill="none" xmlns="http://www.w3.org/2000/svg">
<path fill-rule="evenodd" clip-rule="evenodd" d="M14.9406 19.1485H5.0692C2.26931 19.1485 0 21.4178 0 24.2177V71.5302C0 74.33 2.26931 76.5994 5.0692 76.5994H37.5205L55.0177 94.0965C55.969 95.0479 57.2583 95.5818 58.6016 95.5818C59.9466 95.5818 61.2359 95.0479 62.1872 94.0965L79.6844 76.5994H89.5558C92.3557 76.5994 94.625 74.33 94.625 71.5302C94.625 61.821 94.625 33.9269 94.625 24.2177C94.625 21.4178 92.3557 19.1485 89.5558 19.1485H57.1045L39.6073 1.65129C38.656 0.699971 37.3667 0.166016 36.0234 0.166016C34.6784 0.166016 33.3891 0.699971 32.4378 1.65129L14.9406 19.1485ZM42.3008 76.5994L57.407 91.7073C57.7246 92.0232 58.1538 92.2023 58.6016 92.2023C59.0511 92.2023 59.4803 92.0232 59.7979 91.7073L74.9041 76.5994H42.3008ZM62.1162 41.0575C61.976 41.0947 61.8273 41.115 61.6752 41.115H3.37946V71.5302C3.37946 72.4629 4.13646 73.2199 5.0692 73.2199H70.9688V47.9162L64.1203 54.7224C63.4596 55.3797 62.3883 55.3763 61.731 54.7156C61.0737 54.0533 61.0771 52.982 61.7377 52.3247L69.622 44.4894C67.5758 43.6682 64.6103 42.4076 62.1162 41.0575V41.0575ZM91.2455 41.115H83.0554C80.5952 42.438 77.699 43.6699 75.6814 44.4792L83.5454 52.3416C84.2044 53.0006 84.2044 54.0718 83.5454 54.7308C82.8847 55.3898 81.8151 55.3898 81.1545 54.7308L74.3482 47.9246V73.2199H89.5558C90.4885 73.2199 91.2455 72.4629 91.2455 71.5302V41.115ZM69.7555 40.9426C66.6667 39.699 62.3782 37.7744 60.6614 36.0559C59.4989 34.8951 59.4989 33.0093 60.6614 31.8468C61.8222 30.686 63.708 30.686 64.8688 31.8468C66.5873 33.5653 68.5136 37.8521 69.7555 40.9426V40.9426ZM75.5226 40.9426C76.7662 37.8521 78.6908 33.5653 80.4093 31.8468C81.5701 30.686 83.4559 30.686 84.6184 31.8468C85.7793 33.0093 85.7793 34.8951 84.6184 36.0559C82.8999 37.7744 78.6131 39.699 75.5226 40.9426ZM70.9688 22.5279H5.0692C4.13646 22.5279 3.37946 23.2849 3.37946 24.2177V37.7355H57.6587C55.8119 35.2482 56.0163 31.7133 58.2704 29.4575C60.7509 26.977 64.7793 26.977 67.2598 29.4575C68.4713 30.6707 69.7995 33.0296 70.9688 35.4628V22.5279ZM74.3482 22.5279V35.3834C75.5091 32.9789 76.8203 30.6572 78.02 29.4575C80.5005 26.977 84.5272 26.977 87.0077 29.4575C89.2635 31.7133 89.4679 35.2482 87.6211 37.7355H91.2455V24.2177C91.2455 23.2849 90.4885 22.5279 89.5558 22.5279H74.3482ZM52.3242 19.1485L37.218 4.04057C36.9004 3.72459 36.4712 3.54548 36.0234 3.54548C35.5739 3.54548 35.1447 3.72459 34.8271 4.04057L19.7209 19.1485H52.3242Z" fill="url(#paint0_linear_1683_495)"/>
<defs>
<linearGradient id="paint0_linear_1683_495" x1="30.3894" y1="19.3932" x2="77.0311" y2="76.7667" gradientUnits="userSpaceOnUse">
<stop stop-color="#5465FF"/>
<stop offset="1" stop-color="#76F4C3"/>
</linearGradient>
</defs>
</svg>
