<svg width="92" height="92" viewBox="0 0 92 92" fill="none" xmlns="http://www.w3.org/2000/svg">
<path d="M51.7499 77.8046C51.7499 81.0797 49.0953 83.7343 45.8203 83.7343C42.5452 83.7343 39.8906 81.0797 39.8906 77.8046C39.8906 74.5302 42.5452 71.8749 45.8203 71.8749C49.0953 71.8749 51.7499 74.5302 51.7499 77.8046ZM33.8549 16.6183C37.8024 15.7261 41.8882 15.2734 46.0007 15.2734C61.2151 15.2734 75.3409 21.4403 85.7775 32.6378C86.485 33.3973 87.4445 33.7812 88.4069 33.7812C89.2842 33.7812 90.1637 33.4618 90.8565 32.8168C92.3087 31.4635 92.3881 29.1894 91.0355 27.7371C79.2246 15.065 63.231 8.08593 45.9992 8.08593C41.3562 8.08593 36.7369 8.59762 32.2707 9.60765C30.3342 10.0449 29.1199 11.9689 29.5572 13.9047C29.9944 15.8413 31.9191 17.0563 33.8549 16.6183ZM49.4716 32.5213C49.1185 34.4747 50.4149 36.3439 52.3683 36.6976C59.9489 38.0684 66.9925 41.8524 72.7376 47.6417C73.4402 48.3492 74.3646 48.7037 75.2883 48.7037C76.2036 48.7037 77.1195 48.3562 77.82 47.6606C79.2288 46.2625 79.2372 43.9869 77.839 42.5782C71.0502 35.7381 62.6849 31.2593 53.6472 29.6245C51.6945 29.2708 49.8246 30.5686 49.4716 32.5213ZM90.947 85.8653L6.13464 1.05286C4.73153 -0.350952 2.45596 -0.350952 1.05286 1.05286C-0.350952 2.45596 -0.350952 4.73153 1.05286 6.13534L12.7466 17.8291C8.47829 20.596 4.52658 23.916 0.965117 27.7378C-0.388153 29.1894 -0.308136 31.4635 1.1434 32.8168C1.83618 33.4618 2.71566 33.7812 3.59304 33.7812C4.55535 33.7812 5.51486 33.3973 6.22308 32.6378C9.74242 28.8616 13.6836 25.6405 17.9582 23.0407L27.8586 32.941C22.8463 35.2531 18.18 38.5268 14.1595 42.5789C12.7613 43.9876 12.7704 46.2632 14.1792 47.6614C14.8804 48.3569 15.7949 48.7037 16.7102 48.7037C17.6346 48.7037 18.559 48.3492 19.2616 47.6417C23.4015 43.4689 28.1351 40.3791 33.3502 38.4327L44.8895 49.972C39.0006 50.2128 32.6799 53.0351 28.2102 57.4627C26.8008 58.8595 26.7903 61.1351 28.187 62.5452C28.8896 63.2541 29.8148 63.6093 30.7399 63.6093C31.6537 63.6093 32.5683 63.2633 33.2695 62.5691C36.598 59.2715 41.4776 57.1406 45.7023 57.1406H45.7037H45.9642H45.9663C48.6784 57.1406 51.6938 58.0116 54.4572 59.593C54.4923 59.6127 54.5288 59.6281 54.5646 59.6471L85.8653 90.9477C86.5665 91.6489 87.4867 91.9999 88.4062 91.9999C89.3256 91.9999 90.2458 91.6489 90.947 90.9477C92.3509 89.5439 92.3509 87.2684 90.947 85.8653Z" fill="url(#paint0_linear_1146_260)"/>
<defs>
<linearGradient id="paint0_linear_1146_260" x1="14.5" y1="64" x2="91.9999" y2="46.0001" gradientUnits="userSpaceOnUse">
<stop stop-color="#5465FF"/>
<stop offset="1" stop-color="#76F4C3"/>
</linearGradient>
</defs>
</svg>
