<svg width="80" height="80" viewBox="0 0 80 80" fill="none" xmlns="http://www.w3.org/2000/svg">
<g clip-path="url(#clip0_1425_723)">
<path d="M8.45964 10.3437C8.71963 10.6051 9.06102 10.7343 9.40225 10.7343C9.74364 10.7343 10.0849 10.605 10.3449 10.3437C10.8662 9.82375 10.8662 8.97848 10.3449 8.45851L6.57301 4.68791C6.05163 4.16653 5.20777 4.16653 4.68779 4.68791C4.16657 5.20789 4.16657 6.05316 4.68779 6.57313L8.45964 10.3437Z" fill="url(#paint0_linear_1425_723)"/>
<path d="M22.6002 10.7356C22.9416 10.7356 23.2829 10.605 23.5429 10.345L27.3133 6.57313C27.8345 6.05175 27.8345 5.20789 27.3133 4.68791C26.7933 4.16653 25.9493 4.16653 25.4281 4.68791L21.6576 8.45976C21.1363 8.97973 21.1363 9.825 21.6576 10.345C21.9175 10.605 22.2589 10.7356 22.6002 10.7356Z" fill="url(#paint1_linear_1425_723)"/>
<path d="M16.0006 8.00156C16.7365 8.00156 17.3338 7.40425 17.3338 6.66835V1.33517C17.3338 0.599268 16.7365 0.00195312 16.0006 0.00195312C15.2647 0.00195312 14.6674 0.599268 14.6674 1.33517V6.66819C14.6672 7.40425 15.2645 8.00156 16.0006 8.00156Z" fill="url(#paint2_linear_1425_723)"/>
<path d="M8.00102 16.0012C8.00102 15.2653 7.4037 14.668 6.6678 14.668H1.33322C0.597315 14.668 0 15.2653 0 16.0012C0 16.7371 0.597315 17.3344 1.33322 17.3344H6.66764C7.4037 17.3344 8.00102 16.7371 8.00102 16.0012Z" fill="url(#paint3_linear_1425_723)"/>
<path d="M8.45814 21.6586L4.68645 25.4303C4.16506 25.9517 4.16506 26.7956 4.68645 27.3155C4.94643 27.5768 5.28782 27.7062 5.62906 27.7062C5.97045 27.7062 6.31168 27.5768 6.57167 27.3155L10.3435 23.5437C10.8635 23.0237 10.8635 22.1797 10.3435 21.6585C9.82213 21.1373 8.97827 21.1373 8.45814 21.6586Z" fill="url(#paint4_linear_1425_723)"/>
<path d="M79.904 62.1678C78.4508 58.548 78.1241 55.9041 77.8068 53.3482C77.3788 49.9017 76.9375 46.3366 73.775 40.8582L65.1087 25.8469C63.7128 23.4311 60.2422 22.4977 57.8223 23.895C57.013 24.3629 56.3383 25.0643 55.8744 25.9029C54.9771 24.6109 53.6678 23.6883 52.132 23.2763C50.412 22.8149 48.6162 23.0536 47.0736 23.9416C45.607 24.7882 44.5843 26.1121 44.087 27.604C42.0018 25.8815 38.9779 25.5348 36.5021 26.9667C35.0608 27.7987 34.0022 29.1093 33.4955 30.6825L22.0215 14.5462C18.6458 9.94505 15.3259 10.8811 13.6446 11.8529C12.0967 12.7462 11.0754 14.1688 10.7662 15.8607C10.4821 17.4166 10.8168 19.1232 11.7288 20.6991L30.1785 50.6749C30.5638 51.3016 31.3851 51.4976 32.0117 51.1123C32.6396 50.7256 32.8357 49.9056 32.449 49.2791L14.0179 19.334C13.4432 18.3367 13.2193 17.2741 13.3899 16.3382C13.5579 15.4168 14.1072 14.665 14.9778 14.1623C15.5778 13.8156 17.4018 12.7598 19.8602 16.1076L34.1316 36.1799C34.5436 36.7584 35.3382 36.9131 35.9395 36.5292C36.538 36.1439 36.7288 35.356 36.3727 34.7399C35.8381 33.8147 35.6968 32.7374 35.9727 31.7041C36.2487 30.6722 36.9113 29.8096 37.8353 29.2763C39.7458 28.1749 42.1992 28.8296 43.3003 30.7403L44.6283 33.0416C44.6309 33.0442 44.6336 33.0495 44.6336 33.0495C45.0015 33.6881 45.8176 33.9042 46.4549 33.5375C47.0922 33.1695 47.3108 32.3549 46.9428 31.7163C45.8402 29.8058 46.4961 27.3551 48.4068 26.2525C49.3308 25.7179 50.4147 25.5766 51.4414 25.8526C52.4746 26.1299 53.336 26.7911 53.8692 27.7165L55.865 31.1723L55.8691 31.1803C56.2385 31.8176 57.0531 32.0349 57.6917 31.6682C58.329 31.3003 58.5476 30.4856 58.1796 29.8469C57.8423 29.2643 57.7582 28.527 57.9503 27.8256C58.1423 27.127 58.5809 26.5363 59.1555 26.2043C60.3234 25.5296 62.1274 26.0149 62.7994 27.1801L71.4657 42.1914C74.3588 47.2006 74.7482 50.347 75.1602 53.6762C75.4669 56.1455 75.7816 58.6906 77.0148 62.0784L51.2214 76.971C46.7283 72.1326 39.8605 67.0555 30.7864 61.8677C29.8051 61.3063 28.8318 60.7637 27.8759 60.2424C25.4254 58.9066 23.6947 56.2506 23.6641 53.7854C23.6508 52.6655 24.0027 51.1176 25.7573 50.1056C26.3959 49.7362 26.6146 48.9203 26.2466 48.283C25.8773 47.6457 25.06 47.4271 24.4241 47.7951C22.1842 49.0897 20.9669 51.2282 20.9989 53.8174C21.0389 57.256 23.2909 60.7785 26.6001 62.585C27.54 63.097 28.4973 63.6302 29.4626 64.1822C38.7901 69.5153 45.6845 74.6844 49.9536 79.5441C50.2136 79.8401 50.5816 79.9974 50.955 79.9974C51.1829 79.9974 51.4135 79.9388 51.6217 79.8188L65.4776 71.8192L79.3336 63.8196C79.9081 63.4877 80.1507 62.7839 79.904 62.1678Z" fill="url(#paint5_linear_1425_723)"/>
</g>
<defs>
<linearGradient id="paint0_linear_1425_723" x1="7.51639" y1="4.29688" x2="7.51639" y2="10.7343" gradientUnits="userSpaceOnUse">
<stop stop-color="#5465FF"/>
<stop offset="1" stop-color="#76F4C3"/>
</linearGradient>
<linearGradient id="paint1_linear_1425_723" x1="24.4854" y1="4.29688" x2="24.4854" y2="10.7356" gradientUnits="userSpaceOnUse">
<stop stop-color="#5465FF"/>
<stop offset="1" stop-color="#76F4C3"/>
</linearGradient>
<linearGradient id="paint2_linear_1425_723" x1="16.0006" y1="0.00195312" x2="16.0006" y2="8.00156" gradientUnits="userSpaceOnUse">
<stop stop-color="#5465FF"/>
<stop offset="1" stop-color="#76F4C3"/>
</linearGradient>
<linearGradient id="paint3_linear_1425_723" x1="4.00051" y1="14.668" x2="4.00051" y2="17.3344" gradientUnits="userSpaceOnUse">
<stop stop-color="#5465FF"/>
<stop offset="1" stop-color="#76F4C3"/>
</linearGradient>
<linearGradient id="paint4_linear_1425_723" x1="7.51445" y1="21.2676" x2="7.51445" y2="27.7062" gradientUnits="userSpaceOnUse">
<stop stop-color="#5465FF"/>
<stop offset="1" stop-color="#76F4C3"/>
</linearGradient>
<linearGradient id="paint5_linear_1425_723" x1="45.3339" y1="11.0547" x2="45.3339" y2="79.9974" gradientUnits="userSpaceOnUse">
<stop stop-color="#5465FF"/>
<stop offset="1" stop-color="#76F4C3"/>
</linearGradient>
<clipPath id="clip0_1425_723">
<rect width="80" height="80" fill="white"/>
</clipPath>
</defs>
</svg>
