<svg width="78" height="78" viewBox="0 0 78 78" fill="none" xmlns="http://www.w3.org/2000/svg">
<g clip-path="url(#clip0_1427_787)">
<path d="M68.5905 57.8295H64.025V51.8119C64.025 50.9714 63.3435 50.29 62.5032 50.29C61.6628 50.29 60.9814 50.9714 60.9814 51.8119V59.3513C60.9814 60.1918 61.6628 60.8732 62.5032 60.8732H68.5905C69.4309 60.8732 70.1123 60.1918 70.1123 59.3513C70.1123 58.5108 69.4309 57.8295 68.5905 57.8295Z" fill="url(#paint0_linear_1427_787)"/>
<path d="M10.8502 24.2546H32.0665C32.9069 24.2546 33.5884 23.5733 33.5884 22.7328C33.5884 21.8923 32.9069 21.2109 32.0665 21.2109H10.8502C10.0098 21.2109 9.32837 21.8923 9.32837 22.7328C9.32837 23.5733 10.0097 24.2546 10.8502 24.2546Z" fill="url(#paint1_linear_1427_787)"/>
<path d="M37.3581 48.5918H10.8502C10.0098 48.5918 9.32837 49.2731 9.32837 50.1136C9.32837 50.9541 10.0098 51.6355 10.8502 51.6355H37.3582C38.1986 51.6355 38.8801 50.9541 38.8801 50.1136C38.8801 49.2731 38.1986 48.5918 37.3581 48.5918Z" fill="url(#paint2_linear_1427_787)"/>
<path d="M37.3581 57.7188H10.8502C10.0098 57.7188 9.32837 58.4001 9.32837 59.2406C9.32837 60.0811 10.0098 60.7624 10.8502 60.7624H37.3582C38.1986 60.7624 38.8801 60.0811 38.8801 59.2406C38.8801 58.4001 38.1986 57.7188 37.3581 57.7188Z" fill="url(#paint3_linear_1427_787)"/>
<path d="M45.9152 39.4648H10.8502C10.0098 39.4648 9.32837 40.1462 9.32837 40.9867C9.32837 41.8272 10.0098 42.5085 10.8502 42.5085H45.9152C46.7556 42.5085 47.437 41.8272 47.437 40.9867C47.437 40.1462 46.7556 39.4648 45.9152 39.4648Z" fill="url(#paint4_linear_1427_787)"/>
<path d="M73.3718 48.4131C68.8349 43.8764 62.1442 42.7751 56.5604 45.1076V18.2072C56.5604 17.0941 56.127 16.0477 55.3401 15.2608L41.3012 1.22021C40.9741 0.893316 40.5937 0.626082 40.1811 0.4252C40.1671 0.417591 40.1525 0.411047 40.1383 0.403742C40.1365 0.402829 40.1347 0.401916 40.1329 0.401155C40.088 0.37848 40.0418 0.358087 39.9945 0.339977C39.4785 0.119007 38.9192 0 38.3532 0H4.5305C2.10211 0 0.126312 1.97564 0.126312 4.40418V73.5958C0.126312 76.0244 2.10195 78 4.53034 78H52.1561C54.4814 78 56.4128 76.182 56.553 73.8611C56.5549 73.8305 56.5559 73.7999 56.5559 73.7693V73.4538C58.4531 74.2472 60.4779 74.6448 62.5032 74.6448C66.4392 74.6448 70.3753 73.1466 73.3718 70.1502C76.2748 67.247 77.8737 63.3872 77.8737 59.2816C77.8737 55.176 76.2748 51.3162 73.3718 48.4131V48.4131ZM51.3647 15.5897H41.3086C41.1222 15.5897 40.9706 15.4388 40.9706 15.2533V5.19447L51.3647 15.5897ZM53.5122 73.715C53.4509 74.4141 52.8622 74.9563 52.1562 74.9563H4.5305C3.78023 74.9563 3.17013 74.3461 3.17013 73.5958V4.40418C3.17013 3.65392 3.78038 3.04366 4.5305 3.04366H37.9271V15.2533C37.9271 17.1171 39.4441 18.6333 41.3088 18.6333H53.5169V46.8114C52.8577 47.287 52.2276 47.8202 51.6347 48.4131C48.7317 51.3163 47.1328 55.1762 47.1328 59.2818C47.1328 63.3874 48.7317 67.2472 51.6347 70.1504C52.2262 70.7419 52.8548 71.274 53.5123 71.7488V73.715H53.5122ZM71.2195 67.9981C66.4132 72.8043 58.593 72.8043 53.7867 67.9981C51.4585 65.6698 50.1762 62.5742 50.1762 59.2818C50.1762 55.9893 51.4585 52.8936 53.7867 50.5655C56.1899 48.1623 59.3464 46.9607 62.503 46.9607C65.6596 46.9607 68.8162 48.1623 71.2193 50.5655C73.5476 52.8937 74.8299 55.9893 74.8299 59.2818C74.8299 62.5742 73.5477 65.6698 71.2195 67.9981Z" fill="url(#paint5_linear_1427_787)"/>
<path d="M10.698 33.4802H38.1539C38.9942 33.4802 39.6757 32.7989 39.6757 31.9584C39.6757 31.1178 38.9942 30.4365 38.1539 30.4365H10.698C9.85768 30.4365 9.17621 31.1178 9.17621 31.9584C9.17621 32.7989 9.85753 33.4802 10.698 33.4802V33.4802Z" fill="url(#paint6_linear_1427_787)"/>
<path d="M45.7276 33.4807C46.5685 33.4807 47.2501 32.799 47.2501 31.9581C47.2501 31.1172 46.5685 30.4355 45.7276 30.4355C44.8866 30.4355 44.205 31.1172 44.205 31.9581C44.205 32.799 44.8866 33.4807 45.7276 33.4807Z" fill="url(#paint7_linear_1427_787)"/>
</g>
<defs>
<linearGradient id="paint0_linear_1427_787" x1="65.5469" y1="50.29" x2="65.5469" y2="60.8732" gradientUnits="userSpaceOnUse">
<stop stop-color="#5465FF"/>
<stop offset="1" stop-color="#76F4C3"/>
</linearGradient>
<linearGradient id="paint1_linear_1427_787" x1="21.4584" y1="21.2109" x2="21.4584" y2="24.2546" gradientUnits="userSpaceOnUse">
<stop stop-color="#5465FF"/>
<stop offset="1" stop-color="#76F4C3"/>
</linearGradient>
<linearGradient id="paint2_linear_1427_787" x1="24.1042" y1="48.5918" x2="24.1042" y2="51.6355" gradientUnits="userSpaceOnUse">
<stop stop-color="#5465FF"/>
<stop offset="1" stop-color="#76F4C3"/>
</linearGradient>
<linearGradient id="paint3_linear_1427_787" x1="24.1042" y1="57.7188" x2="24.1042" y2="60.7624" gradientUnits="userSpaceOnUse">
<stop stop-color="#5465FF"/>
<stop offset="1" stop-color="#76F4C3"/>
</linearGradient>
<linearGradient id="paint4_linear_1427_787" x1="28.3827" y1="39.4648" x2="28.3827" y2="42.5085" gradientUnits="userSpaceOnUse">
<stop stop-color="#5465FF"/>
<stop offset="1" stop-color="#76F4C3"/>
</linearGradient>
<linearGradient id="paint5_linear_1427_787" x1="39" y1="0" x2="39" y2="78" gradientUnits="userSpaceOnUse">
<stop stop-color="#5465FF"/>
<stop offset="1" stop-color="#76F4C3"/>
</linearGradient>
<linearGradient id="paint6_linear_1427_787" x1="24.426" y1="30.4365" x2="24.426" y2="33.4802" gradientUnits="userSpaceOnUse">
<stop stop-color="#5465FF"/>
<stop offset="1" stop-color="#76F4C3"/>
</linearGradient>
<linearGradient id="paint7_linear_1427_787" x1="45.7276" y1="30.4355" x2="45.7276" y2="33.4807" gradientUnits="userSpaceOnUse">
<stop stop-color="#5465FF"/>
<stop offset="1" stop-color="#76F4C3"/>
</linearGradient>
<clipPath id="clip0_1427_787">
<rect width="78" height="78" fill="white"/>
</clipPath>
</defs>
</svg>
