<svg width="135" height="135" viewBox="0 0 135 135" fill="none" xmlns="http://www.w3.org/2000/svg">
<g clip-path="url(#clip0_753_563)">
<path d="M98.0918 41.9258C92.2371 41.9182 87.4846 46.6581 87.4771 52.5128C87.4695 58.3675 92.2094 63.12 98.0641 63.1275C103.919 63.1351 108.671 58.3952 108.679 52.5405C108.679 52.5358 108.679 52.5314 108.679 52.5267C108.68 46.677 103.942 41.9323 98.0918 41.9258ZM92.7912 58.8842C91.6234 58.8842 90.6765 57.9373 90.6765 56.7695C90.6765 55.6016 91.6234 54.6547 92.7912 54.6547C93.9591 54.6547 94.906 55.6016 94.906 56.7695C94.9028 57.9363 93.9578 58.8813 92.7912 58.8842ZM100.207 53.5839C97.8669 53.5802 95.9731 51.6807 95.9768 49.3411C95.9805 47.0015 97.88 45.1077 100.22 45.1114C102.559 45.115 104.453 47.0145 104.449 49.3542V49.3544C104.444 51.6935 102.546 53.5865 100.207 53.5839Z" fill="url(#paint0_linear_753_563)"/>
<path d="M59.9994 52.5269C59.9996 46.6722 55.2534 41.926 49.3987 41.9258C43.5441 41.9255 38.7979 46.6717 38.7976 52.5264C38.7973 58.3811 43.5435 63.1273 49.3982 63.1275C49.3985 63.1275 49.3985 63.1275 49.3987 63.1275C55.2524 63.1286 59.9983 58.3842 59.9994 52.5306C59.9994 52.5295 59.9994 52.5282 59.9994 52.5269ZM44.0984 58.8845C42.9306 58.8771 41.9897 57.9242 41.997 56.7564C42.0044 55.5885 42.9573 54.6477 44.1251 54.655C45.2877 54.6623 46.2265 55.6068 46.2265 56.7697C46.2247 57.9394 45.2749 58.8863 44.105 58.8845C44.1026 58.8845 44.1005 58.8845 44.0984 58.8845ZM47.284 49.3547C47.2803 47.0151 49.1739 45.1153 51.5135 45.1116C53.8531 45.108 55.7529 47.0015 55.7565 49.3411C55.7602 51.6807 53.8667 53.5805 51.5271 53.5842C49.1885 53.5855 47.2903 51.6933 47.284 49.3547Z" fill="url(#paint1_linear_753_563)"/>
<path d="M119.247 22.4332C120.617 19.1749 120.364 15.4603 118.565 12.4178C118.506 12.3166 118.44 12.2196 118.367 12.1276L110.912 2.63726C110.416 2.00575 109.659 1.63677 108.856 1.63599C108.054 1.63677 107.297 2.00496 106.801 2.63543L102.699 7.84709C75.3352 -8.14169 40.1906 1.08004 24.2019 28.4443C19.9423 35.7343 17.3441 43.8745 16.592 52.2843C16.4406 53.9079 16.364 55.627 16.364 57.3937C16.3394 66.0378 18.2876 74.5733 22.0602 82.3508L22.0916 82.3356L20.2511 89.8323C19.8053 91.5241 18.9664 93.0869 17.8027 94.3936C17.4991 94.7335 17.2274 95.0831 16.9856 95.3977C10.0548 104.43 11.7585 117.37 20.7906 124.301C24.4077 127.076 28.8424 128.575 33.4016 128.561C36.0778 128.562 38.7281 128.035 41.2 127.009C42.086 126.648 42.9432 126.22 43.7643 125.728L63.9412 113.942C67.1796 114.496 70.4588 114.774 73.744 114.775C105.432 114.778 131.123 89.092 131.126 57.4036C131.126 57.4005 131.126 57.3971 131.126 57.3939C131.126 55.6738 131.057 54.0099 130.912 52.2947C129.95 41.4321 125.902 31.0713 119.247 22.4332ZM103.564 15.2043L108.854 8.48384L114.136 15.2075C115.213 17.1457 115.13 19.5206 113.92 21.3788L113.914 21.3885L113.904 21.4032C113.669 21.758 113.403 22.0912 113.108 22.3984C110.742 24.7477 106.919 24.7339 104.569 22.3676C102.683 20.4673 102.273 17.5513 103.563 15.2049L103.564 15.2043ZM38.4355 19.0646C55.0827 3.72823 79.7218 0.879997 99.4291 12.0141L99.3316 12.1315C99.256 12.2267 99.187 12.3271 99.1253 12.4319C95.9873 17.8089 97.8024 24.7119 103.18 27.8499C104.902 28.8551 106.861 29.3854 108.855 29.3864C111.456 29.4079 113.983 28.5198 115.998 26.876C120.953 33.7137 124.17 41.6546 125.371 50.0131H121.247C119.799 37.222 108.256 28.0264 95.4648 29.474C84.6681 30.696 76.1477 39.2161 74.9257 50.0131H72.5673C71.1241 37.2214 59.5841 28.0217 46.7924 29.4651C35.9892 30.684 27.4633 39.2099 26.2444 50.0131H22.1326C23.7937 38.1121 29.5602 27.1655 38.4355 19.0646ZM116.163 52.5269C116.167 62.5115 108.077 70.6087 98.0921 70.6127C88.1076 70.6166 80.0103 62.5261 80.0064 52.5416C80.0024 42.5571 88.0929 34.4598 98.0774 34.4558C98.0822 34.4558 98.0871 34.4558 98.0918 34.4558C108.067 34.4673 116.152 42.5513 116.163 52.5269ZM38.1831 72.9465C41.0737 74.5422 44.2721 75.5003 47.5638 75.7569L40.3622 79.967C40.7262 77.4184 39.9263 74.8411 38.1831 72.9465ZM31.3274 52.5275C31.3198 42.5432 39.4075 34.443 49.3917 34.4354C59.376 34.4279 67.4762 42.5155 67.4837 52.4997C67.4908 61.6726 60.6267 69.397 51.5167 70.4681C50.8137 70.5538 50.1067 70.5975 49.3985 70.5988C39.4226 70.5873 31.3384 62.5028 31.3274 52.5269V52.5275ZM21.5942 57.4436C21.5942 56.6806 21.6109 55.7656 21.6421 55.2426H26.2444C26.9327 61.3305 30.0079 66.8968 34.7954 70.7201C34.3184 70.5373 33.8266 70.3956 33.3255 70.2968C29.7906 69.6906 26.2478 71.3266 24.4171 74.4109C22.5359 68.9524 21.5816 63.2178 21.5942 57.4441V57.4436ZM65.2712 93.2074L57.5675 97.7156L46.5121 104.169L46.3134 104.281L48.8781 108.839L49.0949 108.717L49.1318 108.696L60.1853 102.242C61.7972 101.336 63.8379 101.884 64.7785 103.476C65.7142 105.096 65.1619 107.168 63.5437 108.108L62.6254 108.654L41.1119 121.22L41.0792 121.239C40.4796 121.598 39.8536 121.91 39.2064 122.174C31.346 125.407 22.3528 121.656 19.1196 113.796C17.0358 108.73 17.8017 102.939 21.1303 98.589C21.3356 98.3228 21.5296 98.0715 21.7085 97.8731C21.7195 97.8613 21.7299 97.8493 21.7406 97.837C23.4532 95.905 24.6833 93.5942 25.3292 91.0945L28.4604 78.3384C28.4737 78.2842 28.4865 78.2296 28.4951 78.1747C28.8238 76.3382 30.5714 75.1096 32.4108 75.4221C32.8522 75.4967 33.2735 75.6611 33.6482 75.9059C33.6574 75.9119 33.6665 75.9182 33.6757 75.924C34.8169 76.6601 35.4047 78.0094 35.1662 79.3464L34.2311 84.6196C33.979 86.0416 34.9275 87.3988 36.3495 87.6508C36.9604 87.7591 37.59 87.6467 38.1256 87.3336L50.6252 80.0261C52.2533 79.1079 54.3176 79.6833 55.2359 81.3116C56.1324 82.9012 55.6073 84.9153 54.0487 85.8645L54.0503 85.8672L41.0839 93.4454L43.7237 97.9601L61.8665 87.3564C63.4737 86.4166 65.5382 86.9573 66.4783 88.5642C66.4785 88.5648 66.4788 88.5653 66.4791 88.5658C66.67 88.8854 66.8015 89.2371 66.8671 89.6034C66.8752 89.6526 66.8846 89.7012 66.8954 89.7499C66.9346 89.9285 66.9547 90.111 66.955 90.2941C66.9518 91.4957 66.3106 92.6052 65.2712 93.2074ZM110.621 94.2738C100.861 104.084 87.5833 109.583 73.7453 109.545C72.288 109.545 70.8278 109.483 69.3736 109.362C70.0864 108.083 70.4614 106.643 70.4632 105.178C70.4632 104.893 70.4447 104.61 70.417 104.328C71.4833 104.719 72.6099 104.919 73.7453 104.92C79.1688 104.913 83.5601 100.511 83.5536 95.0881C83.547 89.6646 79.1452 85.2733 73.722 85.2796C72.7519 85.2806 71.7875 85.4255 70.8599 85.7095C68.7659 82.356 64.6556 80.8618 60.8969 82.088C60.7724 80.861 60.3862 79.6751 59.7646 78.6101C58.8114 76.9932 57.3512 75.7359 55.6107 75.0333C64.7676 72.5096 71.4747 64.679 72.562 55.2431H74.9244C76.2293 66.749 86.1204 75.9294 98.0918 75.9294C110.056 75.9294 119.942 66.749 121.245 55.2431H125.851C125.881 55.7661 125.896 56.6845 125.896 57.4441C125.934 71.2695 120.433 84.534 110.621 94.2738ZM69.4086 96.6119C71.0464 95.1004 72.0354 93.0136 72.1682 90.7891C74.5494 89.9212 77.1835 91.1479 78.0511 93.5293C78.9188 95.9108 77.6924 98.5443 75.3109 99.4122C74.8091 99.595 74.2793 99.6889 73.745 99.6897C71.7953 99.6805 70.0608 98.4497 69.4086 96.6119Z" fill="url(#paint2_linear_753_563)"/>
<path d="M26.9356 129.77C16.5559 129.77 12.2836 123.969 10.6591 120.493C8.2327 115.296 8.70314 109.101 11.8032 105.409L7.79914 102.053C3.36701 107.331 2.61259 115.615 5.92158 122.702C9.57837 130.534 17.2369 135 26.9377 135H26.9808L26.9735 129.77H26.9356Z" fill="url(#paint3_linear_753_563)"/>
</g>
<defs>
<linearGradient id="paint0_linear_753_563" x1="98.0778" y1="2.68153" x2="98.0778" y2="122.586" gradientUnits="userSpaceOnUse">
<stop stop-color="#00EFD1"/>
<stop offset="1" stop-color="#00ACEA"/>
</linearGradient>
<linearGradient id="paint1_linear_753_563" x1="49.3984" y1="2.68178" x2="49.3984" y2="122.587" gradientUnits="userSpaceOnUse">
<stop stop-color="#00EFD1"/>
<stop offset="1" stop-color="#00ACEA"/>
</linearGradient>
<linearGradient id="paint2_linear_753_563" x1="71.9255" y1="2.68206" x2="71.9255" y2="122.587" gradientUnits="userSpaceOnUse">
<stop stop-color="#00EFD1"/>
<stop offset="1" stop-color="#00ACEA"/>
</linearGradient>
<linearGradient id="paint3_linear_753_563" x1="15.4272" y1="2.6817" x2="15.4272" y2="122.586" gradientUnits="userSpaceOnUse">
<stop stop-color="#00EFD1"/>
<stop offset="1" stop-color="#059AD0"/>
</linearGradient>
<clipPath id="clip0_753_563">
<rect width="135" height="135" fill="white"/>
</clipPath>
</defs>
</svg>
