<svg width="47" height="69" viewBox="0 0 47 69" fill="none" xmlns="http://www.w3.org/2000/svg">
<path d="M1.56982 22.6826C1.56982 11.0339 11.2618 1.5 23.2384 1.5C35.215 1.5 44.907 11.0339 44.907 22.6825C44.907 26.181 44.0137 29.6521 42.3227 32.7194C42.3215 32.7216 42.3203 32.7238 42.3191 32.726L23.2384 66.5099L4.1646 32.7369C4.16345 32.7348 4.16229 32.7327 4.16114 32.7306C2.46294 29.6518 1.56982 26.1808 1.56982 22.6826ZM10.1542 22.6826C10.1542 29.7943 16.0526 35.5239 23.2384 35.5239C30.4241 35.5239 36.3226 29.7943 36.3226 22.6826C36.3226 15.5709 30.4241 9.84138 23.2384 9.84138C16.0526 9.84138 10.1542 15.5709 10.1542 22.6826Z" fill="white" stroke="#1C1C1D" stroke-width="3"/>
</svg>
