<svg width="37" height="30" viewBox="0 0 37 30" fill="none" xmlns="http://www.w3.org/2000/svg">
<path d="M36.1837 6.48978C35.7552 5.93876 35.2041 5.63261 34.5306 5.57141L33.0612 5.39333V3.6734V2.44896C33.0612 1.10204 31.9592 3.5031e-09 30.6123 3.5031e-09H2.44896C1.10204 -7.1744e-05 0 1.10197 0 2.44896V3.67347V8.57146V22.0408C0 23.1467 0.743089 24.0869 1.75444 24.3883C1.72359 25.6268 2.66068 26.702 3.91842 26.8163L32.2042 30C32.2654 30 32.3878 30 32.449 30C33.6735 30 34.7756 29.0816 34.898 27.9184L36.7347 8.26531C36.7959 7.65302 36.6122 6.97953 36.1837 6.48978ZM1.22451 4.28569H31.8368V5.87756V7.95917H1.22451V4.28569Z" fill="white"/>
<path d="M18.6122 18.7347H28.4081C28.7755 18.7347 29.0203 18.4898 29.0203 18.1224V12.6122C29.0203 12.2449 28.7755 12 28.4081 12H18.6122C18.2449 12 18 12.2449 18 12.6122V18.1224C17.9999 18.4897 18.2449 18.7347 18.6122 18.7347Z" fill="#2F2F2F"/>
</svg>
