<svg width="37" height="30" viewBox="0 0 37 30" fill="none" xmlns="http://www.w3.org/2000/svg">
<path d="M19.592 20.8167H29.3879C29.7552 20.8167 30.0001 20.5718 30.0001 20.2045V14.6943C30.0001 14.3269 29.7552 14.082 29.3879 14.082H19.592C19.2246 14.082 18.9797 14.3269 18.9797 14.6943V20.2045C18.9797 20.5717 19.2246 20.8167 19.592 20.8167ZM20.2042 15.3065H28.7756V19.5922H20.2042V15.3065Z" fill="white"/>
<path d="M36.1837 6.48978C35.7552 5.93876 35.2041 5.63261 34.5306 5.57141L33.0612 5.39333V3.6734V2.44896C33.0612 1.10204 31.9592 3.5031e-09 30.6123 3.5031e-09H2.44896C1.10204 -7.1744e-05 0 1.10197 0 2.44896V3.67347V8.57146V22.0408C0 23.1467 0.743089 24.0869 1.75444 24.3883C1.72359 25.6268 2.66068 26.702 3.91842 26.8163L32.2042 30C32.2654 30 32.3878 30 32.449 30C33.6735 30 34.7756 29.0816 34.898 27.9184L36.7347 8.26531C36.7959 7.65302 36.6122 6.97953 36.1837 6.48978ZM1.22451 4.28569H31.8368V5.87756V7.95917H1.22451V4.28569ZM2.44896 1.22444H30.6122C31.2857 1.22444 31.8367 1.77546 31.8367 2.44896V3.06118H1.22451V2.44896C1.22451 1.77546 1.77554 1.22444 2.44896 1.22444ZM1.22451 22.0408V9.18361H31.8368V22.0408C31.8368 22.7143 31.2858 23.2653 30.6123 23.2653H2.51023H2.44903C1.77554 23.2653 1.22451 22.7143 1.22451 22.0408ZM35.5102 8.02037L33.6735 27.6734C33.6123 28.3469 33 28.8367 32.3266 28.7755L4.10202 25.5918C3.4898 25.5306 3.06118 25.0408 2.99998 24.4898H30.6122C31.9591 24.4898 33.0612 23.3877 33.0612 22.0408V8.57139V6.55098L34.4694 6.67345C34.7755 6.67345 35.0816 6.85712 35.2653 7.102C35.449 7.34687 35.5715 7.71422 35.5102 8.02037Z" fill="white"/>
</svg>
