<svg width="31" height="31" viewBox="0 0 31 31" fill="none" xmlns="http://www.w3.org/2000/svg">
<g clip-path="url(#clip0_1359_240)">
<path d="M15.4998 16.0155C15.2468 16.0155 15.015 15.8513 14.9298 15.6137C14.8444 15.3759 14.9201 15.102 15.1157 14.9418C15.3141 14.7793 15.6013 14.7602 15.8193 14.8956C16.0367 15.0306 16.1477 15.2983 16.0889 15.5474C16.0251 15.8179 15.7783 16.0155 15.4998 16.0155V16.0155Z" fill="white"/>
<path d="M15.5 5.56055C10.0191 5.56055 5.56006 10.0196 5.56006 15.5004C5.56006 20.9812 10.0191 25.4403 15.5 25.4403C20.9809 25.4403 25.4399 20.9813 25.4399 15.5004C25.4399 10.0195 20.9809 5.56055 15.5 5.56055V5.56055ZM21.6953 21.6439H18.8301C18.4957 21.6439 18.2246 21.9149 18.2246 22.2493C18.2246 22.5837 18.4957 22.8548 18.8301 22.8548H20.1974C19.0003 23.6222 17.6042 24.1054 16.1054 24.2086V18.1593C16.1054 17.8249 15.8343 17.5538 15.5 17.5538C15.1656 17.5538 14.8945 17.8249 14.8945 18.1593V24.2086C10.3628 23.8965 6.771 20.11 6.771 15.5004C6.771 10.8909 10.3628 7.10431 14.8945 6.79225V12.683C14.8945 13.0174 15.1656 13.2884 15.5 13.2884C15.8343 13.2884 16.1054 13.0174 16.1054 12.683V6.79231C17.6043 6.89548 19.0003 7.37871 20.1974 8.14608H18.8301C18.4957 8.14608 18.2246 8.41715 18.2246 8.75155C18.2246 9.08595 18.4957 9.35702 18.8301 9.35702H21.6953C22.607 10.2764 23.3162 11.397 23.7495 12.6454H18.8301C18.4957 12.6454 18.2246 12.9164 18.2246 13.2508C18.2246 13.5852 18.4957 13.8563 18.8301 13.8563H24.0737C24.1756 14.3889 24.229 14.9386 24.229 15.5005C24.229 16.0623 24.1756 16.612 24.0737 17.1446H18.8301C18.4957 17.1446 18.2246 17.4157 18.2246 17.7501C18.2246 18.0845 18.4957 18.3556 18.8301 18.3556H23.7495C23.3162 19.6039 22.607 20.7245 21.6953 21.6439V21.6439Z" fill="white"/>
<path d="M15.5 4.05791C15.1656 4.05791 14.8945 3.78684 14.8945 3.45244V0.605469C14.8945 0.271068 15.1656 0 15.5 0C15.8343 0 16.1055 0.271068 16.1055 0.605469V3.45244C16.1055 3.78684 15.8343 4.05791 15.5 4.05791Z" fill="white"/>
<path d="M15.5 31.0002C15.1656 31.0002 14.8945 30.7292 14.8945 30.3948V27.5479C14.8945 27.2135 15.1656 26.9424 15.5 26.9424C15.8343 26.9424 16.1055 27.2135 16.1055 27.5479V30.3948C16.1055 30.7292 15.8343 31.0002 15.5 31.0002Z" fill="white"/>
<path d="M30.3943 16.1055H27.5474C27.213 16.1055 26.9419 15.8344 26.9419 15.5C26.9419 15.1656 27.213 14.8945 27.5474 14.8945H30.3943C30.7287 14.8945 30.9998 15.1656 30.9998 15.5C30.9998 15.8344 30.7287 16.1055 30.3943 16.1055Z" fill="white"/>
<path d="M3.45244 16.1055H0.605469C0.271068 16.1055 0 15.8344 0 15.5C0 15.1656 0.271068 14.8945 0.605469 14.8945H3.45244C3.78678 14.8945 4.05791 15.1656 4.05791 15.5C4.05791 15.8344 3.78678 16.1055 3.45244 16.1055Z" fill="white"/>
<path d="M24.0185 7.58627C23.8635 7.58627 23.7087 7.52717 23.5904 7.40892C23.354 7.17249 23.354 6.78911 23.5904 6.55267L25.6035 4.53961C25.8402 4.30323 26.2234 4.30317 26.4598 4.53961C26.6962 4.77604 26.6962 5.15943 26.4598 5.39586L24.4467 7.40899C24.3284 7.52717 24.1735 7.58627 24.0185 7.58627V7.58627Z" fill="white"/>
<path d="M4.96776 26.6371C4.81276 26.6371 4.65788 26.578 4.53963 26.4598C4.3032 26.2233 4.3032 25.84 4.53963 25.6035L6.55275 23.5904C6.78931 23.354 7.17257 23.354 7.40907 23.5904C7.6455 23.8268 7.6455 24.2102 7.40907 24.4466L5.39589 26.4598C5.27764 26.578 5.12264 26.6371 4.96776 26.6371V26.6371Z" fill="white"/>
<path d="M26.0317 26.6372C25.8767 26.6372 25.7218 26.5781 25.6035 26.4598L23.5904 24.4467C23.354 24.2103 23.354 23.8269 23.5904 23.5904C23.8269 23.354 24.2102 23.3539 24.4467 23.5904L26.4598 25.6036C26.6963 25.84 26.6963 26.2234 26.4598 26.4598C26.3415 26.5781 26.1867 26.6372 26.0317 26.6372Z" fill="white"/>
<path d="M6.98094 7.58631C6.82594 7.58631 6.67106 7.52722 6.55281 7.40897L4.53963 5.39591C4.3032 5.15947 4.3032 4.77609 4.53963 4.53965C4.77613 4.30322 5.15939 4.30316 5.39595 4.53965L7.40907 6.55272C7.6455 6.78915 7.6455 7.17253 7.40907 7.40897C7.29082 7.52722 7.13588 7.58631 6.98094 7.58631V7.58631Z" fill="white"/>
</g>
<defs>
<clipPath id="clip0_1359_240">
<rect width="31" height="31" fill="white"/>
</clipPath>
</defs>
</svg>
