<svg width="36" height="36" viewBox="0 0 36 36" fill="none" xmlns="http://www.w3.org/2000/svg">
<path d="M14.25 11.5H2.25C1.28564 11.5 0.5 10.7144 0.5 9.75V2.25C0.5 1.28564 1.28564 0.5 2.25 0.5H14.25C15.2144 0.5 16 1.28564 16 2.25V9.75C16 10.7144 15.2144 11.5 14.25 11.5Z" stroke="white"/>
<path d="M14.25 35.5H2.25C1.28564 35.5 0.5 34.7144 0.5 33.75V17.25C0.5 16.2856 1.28564 15.5 2.25 15.5H14.25C15.2144 15.5 16 16.2856 16 17.25V33.75C16 34.7144 15.2144 35.5 14.25 35.5Z" stroke="white"/>
<path d="M33.75 35.5H21.75C20.7856 35.5 20 34.7144 20 33.75V26.25C20 25.2856 20.7856 24.5 21.75 24.5H33.75C34.7144 24.5 35.5 25.2856 35.5 26.25V33.75C35.5 34.7144 34.7144 35.5 33.75 35.5Z" stroke="white"/>
<path d="M33.75 20.5H21.75C20.7856 20.5 20 19.7144 20 18.75V2.25C20 1.28564 20.7856 0.5 21.75 0.5H33.75C34.7144 0.5 35.5 1.28564 35.5 2.25V18.75C35.5 19.7144 34.7144 20.5 33.75 20.5Z" stroke="white"/>
</svg>
