<svg width="33" height="33" viewBox="0 0 33 33" fill="none" xmlns="http://www.w3.org/2000/svg">
<path d="M13.0625 11H2.0625C0.925375 11 0 10.0746 0 8.9375V2.0625C0 0.925375 0.925375 0 2.0625 0H13.0625C14.1996 0 15.125 0.925375 15.125 2.0625V8.9375C15.125 10.0746 14.1996 11 13.0625 11Z" fill="white"/>
<path d="M13.0625 33H2.0625C0.925375 33 0 32.0746 0 30.9375V15.8125C0 14.6754 0.925375 13.75 2.0625 13.75H13.0625C14.1996 13.75 15.125 14.6754 15.125 15.8125V30.9375C15.125 32.0746 14.1996 33 13.0625 33Z" fill="white"/>
<path d="M30.9375 33H19.9375C18.8004 33 17.875 32.0746 17.875 30.9375V24.0625C17.875 22.9254 18.8004 22 19.9375 22H30.9375C32.0746 22 33 22.9254 33 24.0625V30.9375C33 32.0746 32.0746 33 30.9375 33Z" fill="white"/>
<path d="M30.9375 19.25H19.9375C18.8004 19.25 17.875 18.3246 17.875 17.1875V2.0625C17.875 0.925375 18.8004 0 19.9375 0H30.9375C32.0746 0 33 0.925375 33 2.0625V17.1875C33 18.3246 32.0746 19.25 30.9375 19.25Z" fill="white"/>
</svg>
