<svg width="29" height="29" viewBox="0 0 29 29" fill="none" xmlns="http://www.w3.org/2000/svg">
<path d="M18.1249 21.75V22.6562C18.1249 23.6177 17.7429 24.5397 17.0631 25.2195C16.3833 25.8993 15.4613 26.2812 14.4999 26.2812C13.5384 26.2812 12.6164 25.8993 11.9366 25.2195C11.2568 24.5397 10.8749 23.6177 10.8749 22.6562V21.75M24.2239 19.9052C22.7694 18.125 21.7425 17.2188 21.7425 12.3108C21.7425 7.81641 19.4474 6.21518 17.5584 5.4375C17.3075 5.33441 17.0713 5.09766 16.9949 4.83994C16.6635 3.71223 15.7346 2.71875 14.4999 2.71875C13.2651 2.71875 12.3356 3.71279 12.0077 4.84107C11.9312 5.10162 11.695 5.33441 11.4441 5.4375C9.55286 6.21631 7.26005 7.81188 7.26005 12.3108C7.25722 17.2188 6.23032 18.125 4.77579 19.9052C4.17313 20.6427 4.70102 21.75 5.75511 21.75H23.2503C24.2987 21.75 24.8232 20.6393 24.2239 19.9052Z" stroke="white" stroke-width="0.75" stroke-linecap="round" stroke-linejoin="round"/>
</svg>
