<svg width="25" height="20" viewBox="0 0 25 20" fill="none" xmlns="http://www.w3.org/2000/svg">
<path d="M10.6889 0.0454544C10.4887 -0.0422745 10.2524 -0.000838348 10.0926 0.150956L4.41693 5.5113H0.551121C0.246499 5.5113 0 5.7578 0 6.06237V13.7778C0 14.0824 0.246499 14.3289 0.551121 14.3289H4.41693L10.0926 19.6893C10.1971 19.7883 10.3332 19.84 10.471 19.84C10.5447 19.84 10.619 19.8255 10.689 19.7948C10.8914 19.7081 11.0221 19.509 11.0221 19.2889V0.551368C11.0221 0.331219 10.8913 0.132098 10.6889 0.0454544ZM9.91987 18.0101L5.01429 13.3774C4.91204 13.2805 4.77642 13.2267 4.63594 13.2267H1.10219V6.61344H4.63594C4.77642 6.61344 4.91204 6.55961 5.01429 6.46273L9.91987 1.8301V18.0101Z" fill="white"/>
<path d="M19.2227 0.105072C18.9741 -0.0741571 18.6302 -0.0181511 18.4531 0.227779C18.2745 0.474278 18.3293 0.818735 18.5758 0.997396C21.4379 3.07049 23.1461 6.40621 23.1461 9.92001C23.1461 13.4338 21.4379 16.7695 18.5758 18.8426C18.3293 19.0213 18.2745 19.3657 18.4531 19.6122C18.5608 19.7608 18.7292 19.8399 18.8998 19.8399C19.0118 19.8399 19.1248 19.806 19.2227 19.735C22.3695 17.4552 24.2484 13.7858 24.2484 9.92001C24.2483 6.05421 22.3695 2.38483 19.2227 0.105072Z" fill="white"/>
<path d="M16.2225 3.39102C15.9668 3.22957 15.6251 3.30655 15.4626 3.56431C15.3006 3.82156 15.3781 4.16173 15.6359 4.32422C17.5771 5.54591 18.7363 7.63782 18.7363 9.91975C18.7363 12.2017 17.5771 14.2936 15.6359 15.5153C15.3781 15.6778 15.3006 16.0179 15.4626 16.2752C15.5675 16.442 15.7467 16.533 15.9297 16.533C16.0299 16.533 16.1315 16.5056 16.2225 16.4485C18.4866 15.0234 19.8386 12.5833 19.8386 9.9198C19.8386 7.25631 18.4866 4.81618 16.2225 3.39102Z" fill="white"/>
<path d="M14.0924 7.27433C13.848 7.09189 13.5031 7.14356 13.3211 7.3868C13.1392 7.63113 13.1898 7.97667 13.4336 8.15802C14.003 8.5821 14.3291 9.22415 14.3291 9.92061C14.3291 10.617 14.003 11.2591 13.4336 11.6832C13.1898 11.8645 13.1392 12.2101 13.3211 12.4544C13.4293 12.5997 13.5951 12.6762 13.7636 12.6762C13.8776 12.6762 13.9934 12.6406 14.0924 12.5669C14.9433 11.9335 15.4314 10.9685 15.4314 9.92061C15.4314 8.87272 14.9433 7.9078 14.0924 7.27433Z" fill="white"/>
</svg>
