<svg width="251" height="251" viewBox="0 0 251 251" fill="none" xmlns="http://www.w3.org/2000/svg">
<g opacity="0.5" filter="url(#filter0_f_329_81)">
<circle cx="125.5" cy="125.5" r="75.5" fill="url(#paint0_linear_329_81)"/>
</g>
<path d="M125.632 190.405C161.234 190.405 190.096 161.544 190.096 125.941C190.096 90.3387 161.234 61.4772 125.632 61.4772C90.0295 61.4772 61.168 90.3387 61.168 125.941C61.168 161.544 90.0295 190.405 125.632 190.405Z" fill="url(#paint1_linear_329_81)"/>
<path d="M160.142 119.992C158.961 117.874 156.729 116.559 154.302 116.559H153.303C153.243 116.556 153.188 116.549 153.128 116.549H136.277V130.264H147.93C148.433 130.264 148.791 130.816 148.535 131.257C148.532 131.26 148.532 131.263 148.528 131.266L144.793 137.606L141.104 143.863H151.09H156.568C157.6 143.863 158.557 143.314 159.09 142.419L166.08 130.652L160.142 119.992Z" fill="white"/>
<path d="M120.137 104.206H141.216L147.46 93.3031L149.762 89.2852H145.619H111.69C109.254 89.3246 106.327 90.745 104.575 93.8489L86.448 125.562L94.8982 140.483L113.022 108.77C114.777 105.666 117.704 104.246 120.137 104.206Z" fill="white"/>
<path d="M153.76 146.917H120.136C117.7 146.878 114.774 145.457 113.021 142.354L105.038 129.004L96.6963 143.603L104.571 157.275C106.324 160.382 109.25 161.802 111.686 161.838H148.87L155.581 150.12C156.397 148.696 155.384 146.917 153.76 146.917Z" fill="white"/>
<defs>
<filter id="filter0_f_329_81" x="0" y="0" width="251" height="251" filterUnits="userSpaceOnUse" color-interpolation-filters="sRGB">
<feFlood flood-opacity="0" result="BackgroundImageFix"/>
<feBlend mode="normal" in="SourceGraphic" in2="BackgroundImageFix" result="shape"/>
<feGaussianBlur stdDeviation="25" result="effect1_foregroundBlur_329_81"/>
</filter>
<linearGradient id="paint0_linear_329_81" x1="125.5" y1="50" x2="125.5" y2="201" gradientUnits="userSpaceOnUse">
<stop stop-color="#5759FB"/>
<stop offset="1" stop-color="#6DC5D4"/>
</linearGradient>
<linearGradient id="paint1_linear_329_81" x1="169.39" y1="49.4175" x2="80.9974" y2="203.998" gradientUnits="userSpaceOnUse">
<stop offset="0.1336" stop-color="#544DFF"/>
<stop offset="0.2417" stop-color="#5552FD"/>
<stop offset="0.3727" stop-color="#5861F8"/>
<stop offset="0.5154" stop-color="#5D79EF"/>
<stop offset="0.6665" stop-color="#649CE3"/>
<stop offset="0.8225" stop-color="#6DC7D3"/>
<stop offset="0.961" stop-color="#76F4C3"/>
</linearGradient>
</defs>
</svg>
