<svg width="35" height="19" viewBox="0 0 35 19" fill="none" xmlns="http://www.w3.org/2000/svg">
<path d="M0.231324 10.0608L8.18569 18.0152C8.47142 18.3489 8.97358 18.3878 9.30724 18.102C9.64089 17.8162 9.67979 17.3141 9.39398 16.9804C9.36732 16.9493 9.33834 16.9203 9.30724 16.8937L2.71307 10.2915L34.2046 10.2915C34.6439 10.2915 35 9.93535 35 9.49601C35 9.05667 34.6439 8.70059 34.2046 8.70059L2.71307 8.70059L9.30724 2.10642C9.6409 1.82068 9.67979 1.31852 9.39399 0.984867C9.10818 0.65121 8.60609 0.612316 8.27243 0.89812C8.24133 0.924781 8.21228 0.953764 8.18569 0.984867L0.231255 8.9393C-0.0771095 9.24944 -0.0771095 9.75051 0.231324 10.0608Z" fill="white"/>
</svg>
