<svg width="24" height="24" viewBox="0 0 24 24" fill="none" xmlns="http://www.w3.org/2000/svg">
<path d="M11.6327 15.1915C11.3612 15.1915 11.2255 15.0307 11.2255 14.709C11.2255 14.1863 11.321 13.7038 11.512 13.2615C11.703 12.8091 12.0398 12.3015 12.5223 11.7386C12.9043 11.2963 13.1706 10.9193 13.3214 10.6077C13.4722 10.2961 13.5476 9.96434 13.5476 9.61251C13.5476 9.19031 13.3968 8.85859 13.0953 8.61733C12.7937 8.36603 12.3765 8.24037 11.8437 8.24037C11.3813 8.24037 10.9541 8.31074 10.5621 8.45147C10.1801 8.5922 9.80817 8.79325 9.44628 9.05461C9.25529 9.18529 9.0844 9.23555 8.93362 9.20539C8.79289 9.17523 8.68734 9.10487 8.61697 8.99429C8.54661 8.87366 8.53153 8.73796 8.57174 8.58718C8.61195 8.42634 8.72252 8.28058 8.90346 8.1499C9.2955 7.83828 9.7579 7.592 10.2907 7.41106C10.8234 7.23012 11.3612 7.13965 11.9041 7.13965C12.7686 7.13965 13.4672 7.3608 14 7.8031C14.5327 8.23535 14.7991 8.80832 14.7991 9.52204C14.7991 9.99449 14.6936 10.4368 14.4825 10.8489C14.2814 11.2611 13.9246 11.7386 13.4119 12.2814C12.9394 12.784 12.6027 13.2213 12.4017 13.5932C12.2107 13.9651 12.09 14.3622 12.0398 14.7844C12.0197 15.0558 11.884 15.1915 11.6327 15.1915ZM11.6176 17.9659C11.3663 17.9659 11.1602 17.8905 10.9994 17.7398C10.8486 17.5789 10.7732 17.3779 10.7732 17.1366C10.7732 16.8954 10.8486 16.6994 10.9994 16.5486C11.1602 16.3877 11.3663 16.3073 11.6176 16.3073C11.8689 16.3073 12.0649 16.3877 12.2056 16.5486C12.3564 16.6994 12.4318 16.8954 12.4318 17.1366C12.4318 17.3779 12.3564 17.5789 12.2056 17.7398C12.0649 17.8905 11.8689 17.9659 11.6176 17.9659Z" fill="white"/>
<circle cx="11.78" cy="11.78" r="11.28" stroke="white"/>
</svg>
