<svg width="18" height="18" viewBox="0 0 18 18" fill="none" xmlns="http://www.w3.org/2000/svg">
<path d="M12.0372 10.962C11.9258 10.962 11.819 11.0063 11.7402 11.085C11.6614 11.1638 11.6172 11.2706 11.6172 11.382V16.3296C11.6172 16.441 11.573 16.5478 11.4942 16.6266C11.4154 16.7054 11.3086 16.7496 11.1972 16.7496H1.26C1.14861 16.7496 1.04178 16.7054 0.963015 16.6266C0.88425 16.5478 0.84 16.441 0.84 16.3296V1.2852C0.836559 1.22796 0.844876 1.17063 0.864437 1.11672C0.883998 1.06282 0.914389 1.0135 0.953738 0.971787C0.993087 0.930077 1.04056 0.896866 1.09323 0.874201C1.1459 0.851536 1.20266 0.839897 1.26 0.84H11.1972C11.3086 0.84 11.4154 0.88425 11.4942 0.963015C11.573 1.04178 11.6172 1.14861 11.6172 1.26V6.2328C11.6172 6.34419 11.6614 6.45102 11.7402 6.52979C11.819 6.60855 11.9258 6.6528 12.0372 6.6528C12.1486 6.6528 12.2554 6.60855 12.3342 6.52979C12.413 6.45102 12.4572 6.34419 12.4572 6.2328V1.2852C12.4606 1.11763 12.4304 0.951067 12.3686 0.795276C12.3068 0.639486 12.2145 0.497594 12.0972 0.37791C11.9798 0.258226 11.8398 0.163155 11.6853 0.0982643C11.5307 0.0333733 11.3648 -3.34997e-05 11.1972 2.52075e-08H1.26C0.925827 2.52075e-08 0.605341 0.13275 0.369046 0.369046C0.13275 0.605341 0 0.925827 0 1.26V16.3296C0 16.6638 0.13275 16.9843 0.369046 17.2206C0.605341 17.4569 0.925827 17.5896 1.26 17.5896H11.1972C11.5314 17.5896 11.8519 17.4569 12.0882 17.2206C12.3245 16.9843 12.4572 16.6638 12.4572 16.3296V11.382C12.4572 11.2706 12.413 11.1638 12.3342 11.085C12.2554 11.0063 12.1486 10.962 12.0372 10.962V10.962Z" fill="white"/>
<path d="M17.22 8.82013C17.2193 8.76121 17.2063 8.70309 17.1817 8.64954C17.157 8.59599 17.1215 8.54822 17.0772 8.50933L14.196 5.67013C14.1569 5.63077 14.1105 5.59952 14.0593 5.5782C14.0081 5.55688 13.9532 5.5459 13.8978 5.5459C13.8423 5.5459 13.7874 5.55688 13.7363 5.5782C13.6851 5.59952 13.6386 5.63077 13.5996 5.67013C13.5605 5.70846 13.5294 5.7542 13.5082 5.80468C13.487 5.85517 13.476 5.90938 13.476 5.96413C13.476 6.01889 13.487 6.0731 13.5082 6.12359C13.5294 6.17407 13.5605 6.21981 13.5996 6.25813L15.7668 8.40013H8.39998C8.28859 8.40013 8.18176 8.44438 8.103 8.52315C8.02423 8.60191 7.97998 8.70874 7.97998 8.82013C7.97998 8.93152 8.02423 9.03835 8.103 9.11712C8.18176 9.19588 8.28859 9.24013 8.39998 9.24013H15.7668L13.5996 11.3737C13.5605 11.4121 13.5294 11.4578 13.5082 11.5083C13.487 11.5588 13.476 11.613 13.476 11.6677C13.476 11.7225 13.487 11.7767 13.5082 11.8272C13.5294 11.8777 13.5605 11.9234 13.5996 11.9617C13.6771 12.0409 13.7828 12.0862 13.8936 12.0877C13.9493 12.0892 14.0047 12.0795 14.0566 12.0593C14.1085 12.0391 14.1559 12.0088 14.196 11.9701L17.0772 9.13093C17.1215 9.09205 17.157 9.04427 17.1817 8.99073C17.2063 8.93718 17.2193 8.87906 17.22 8.82013V8.82013Z" fill="white"/>
</svg>
