<svg width="23" height="23" viewBox="0 0 23 23" fill="currentcolor" xmlns="http://www.w3.org/2000/svg">
<path d="M20.7403 6.63802C20.8122 6.97599 20.8469 7.3208 20.8438 7.66632V15.333C20.9 15.8185 20.8458 16.3105 20.6851 16.7721C20.5244 17.2338 20.2614 17.6531 19.9158 17.9987C19.5701 18.3444 19.1508 18.6074 18.6892 18.7681C18.2276 18.9288 17.7356 18.983 17.25 18.9267H8.62501C8.43439 18.9267 8.25157 18.851 8.11678 18.7162C7.98199 18.5814 7.90626 18.3986 7.90626 18.208C7.90626 18.0174 7.98199 17.8345 8.11678 17.6998C8.25157 17.565 8.43439 17.4892 8.62501 17.4892H17.25C18.7613 17.4892 19.4063 16.8443 19.4063 15.333V10.3017H17.25C17.0594 10.3017 16.8766 10.226 16.7418 10.0912C16.607 9.95642 16.5313 9.77361 16.5313 9.58298C16.5313 9.39236 16.607 9.20954 16.7418 9.07475C16.8766 8.93996 17.0594 8.86423 17.25 8.86423H19.4063V7.66632C19.4087 7.4256 19.3856 7.18531 19.3373 6.94948C19.3006 6.7652 19.3375 6.57388 19.4401 6.41649C19.5428 6.25911 19.703 6.14817 19.8864 6.10745C20.0698 6.06673 20.2619 6.09946 20.4215 6.19863C20.5811 6.2978 20.6955 6.45553 20.7403 6.63802V6.63802ZM3.38293 20.6326C3.24668 20.7595 3.06647 20.8286 2.88026 20.8254C2.69406 20.8221 2.5164 20.7466 2.38471 20.615C2.25302 20.4833 2.17759 20.3056 2.17431 20.1194C2.17102 19.9332 2.24014 19.753 2.3671 19.6167L3.59568 18.3882C3.10742 18.0513 2.71704 17.5912 2.46421 17.0546C2.21139 16.5179 2.10514 15.924 2.15626 15.333V7.66632C2.09999 7.18077 2.15423 6.68878 2.31493 6.22715C2.47564 5.76553 2.73864 5.34621 3.08428 5.00058C3.42991 4.65495 3.84922 4.39194 4.31085 4.23124C4.77248 4.07053 5.26447 4.01629 5.75001 4.07257H17.25C17.4579 4.07305 17.6656 4.08617 17.872 4.11186L19.6171 2.36673C19.7533 2.23977 19.9336 2.17065 20.1198 2.17394C20.306 2.17723 20.4836 2.25266 20.6153 2.38435C20.747 2.51603 20.8224 2.69369 20.8257 2.8799C20.829 3.0661 20.7599 3.24632 20.6329 3.38257L3.38293 20.6326ZM3.59376 7.66632V8.86423H13.1186L16.4728 5.51007H5.75001C4.23872 5.51007 3.59376 6.15502 3.59376 7.66632V7.66632ZM4.66518 17.3187L6.88947 15.0934H6.70835C6.51772 15.0934 6.33491 15.0177 6.20011 14.8829C6.06532 14.7481 5.9896 14.5653 5.9896 14.3746C5.9896 14.184 6.06532 14.0012 6.20011 13.8664C6.33491 13.7316 6.51772 13.6559 6.70835 13.6559H8.32697L11.6811 10.3017H3.59376V15.333C3.59376 16.6555 4.11222 17.1222 4.66518 17.3187V17.3187Z" fill="currentcolor"/>
</svg>
