<svg width="161" height="161" viewBox="0 0 161 161" fill="none" xmlns="http://www.w3.org/2000/svg">
<path d="M77.1341 74.6059C92.9967 74.6059 105.902 61.6998 105.902 45.8375C105.902 29.9752 92.9964 17.0714 77.1341 17.0714C61.2718 17.0714 48.3679 29.9749 48.3679 45.8375C48.3679 61.7001 61.2715 74.6059 77.1341 74.6059ZM77.1341 21.8919C90.3389 21.8919 101.082 32.6349 101.082 45.8375C101.082 59.0424 90.3389 69.7853 77.1341 69.7853C63.9315 69.7853 53.1885 59.0424 53.1885 45.8375C53.1885 32.6349 63.9315 21.8919 77.1341 21.8919Z" fill="url(#paint0_linear_331_85)"/>
<path d="M150.006 108.353C148.683 108.497 147.728 109.685 147.871 111.01C147.885 111.135 147.881 111.248 147.881 111.375C147.881 111.505 147.885 111.634 147.871 111.764C147.728 113.089 148.683 114.277 150.006 114.421C150.095 114.43 150.182 114.435 150.27 114.435C151.484 114.435 152.529 113.519 152.664 112.286C152.697 111.982 152.701 111.679 152.701 111.375C152.701 111.069 152.697 110.796 152.664 110.488C152.52 109.165 151.331 108.216 150.006 108.353Z" fill="url(#paint1_linear_331_85)"/>
<path d="M149.255 120.734C147.98 120.346 146.636 121.07 146.25 122.342C141.408 138.315 126.925 149.048 110.208 149.048C89.4471 149.048 72.5584 132.148 72.5584 111.375C72.5584 90.6144 89.4471 73.7257 110.208 73.7257C126.656 73.7257 141.476 84.7086 146.25 100.432C146.636 101.706 147.977 102.428 149.255 102.04C150.531 101.654 151.249 100.308 150.863 99.0342C145.635 81.8119 130.475 70.0187 112.691 69.0045C117.16 62.1356 119.609 54.079 119.609 45.8375C119.609 22.4218 100.557 3.36969 77.1391 3.36969C53.7092 3.36969 34.6455 22.4215 34.6455 45.8375C34.6455 55.8667 38.2541 65.5663 44.6391 73.1607C24.1229 76.1473 8.29932 93.8048 8.29932 115.134C8.29932 138.567 27.3511 157.63 50.7694 157.63C62.9742 157.63 74.3794 152.494 82.4448 143.458C89.8983 149.924 99.592 153.869 110.208 153.869C129.063 153.869 145.4 141.761 150.864 123.74C151.249 122.466 150.529 121.12 149.255 120.734ZM71.0387 127.786C66.6763 134.771 59.0363 139.094 50.7687 139.094C37.5708 139.094 26.8351 128.346 26.8351 115.134C26.8351 101.936 37.5708 91.2005 50.7687 91.2005C57.9615 91.2005 64.7952 94.5117 69.3149 100.06C68.3146 103.669 67.7372 107.452 67.7372 111.375C67.7376 117.19 68.9161 122.734 71.0387 127.786ZM39.4657 45.8375C39.4657 25.0792 56.3663 8.19026 77.1388 8.19026C97.8996 8.19026 114.788 25.0789 114.788 45.8375C114.788 54.3822 111.987 62.3878 106.723 69.0816C95.5686 69.9941 85.6457 75.2336 78.5915 83.1172C70.8626 76.3844 61.0954 72.6664 50.7684 72.6664C50.7627 72.6664 50.7577 72.6673 50.7521 72.6673C43.586 65.639 39.4657 55.9283 39.4657 45.8375ZM50.7687 152.81C30.0079 152.81 13.1193 135.909 13.1193 115.135C13.1193 94.3762 30.0079 77.4872 50.7687 77.4872C59.9879 77.4872 68.7029 80.8302 75.5753 86.8781C73.8166 89.3566 72.2902 92.0102 71.0893 94.841C65.7392 89.5022 58.4225 86.38 50.7687 86.38C34.9134 86.38 22.0145 99.2788 22.0145 115.135C22.0145 131.004 34.9134 143.915 50.7687 143.915C59.7454 143.915 68.1256 139.69 73.5254 132.69C75.069 135.339 76.8913 137.798 78.951 140.044C71.7924 148.153 61.6598 152.81 50.7687 152.81Z" fill="url(#paint2_linear_331_85)"/>
<path d="M126.204 109.612C125.647 108.645 124.596 108.044 123.452 108.044L114.96 108.04V114.307H120.449C120.687 114.307 120.855 114.56 120.733 114.761C120.733 114.763 120.731 114.763 120.731 114.766L117.232 120.52H124.517C125.004 120.52 125.454 120.269 125.705 119.86L129 114.483L126.204 109.612Z" fill="url(#paint3_linear_331_85)"/>
<path d="M106.601 101.276H116.989L120.067 95.9601L121.2 94H119.158H102.437C101.236 94.0193 99.7957 94.7112 98.9306 96.2253L90 111.686L94.1644 118.96L103.095 103.499C103.96 101.987 105.4 101.295 106.601 101.276Z" fill="url(#paint4_linear_331_85)"/>
<path d="M123.266 122.791H106.423C105.202 122.772 103.738 122.098 102.859 120.622L98.8586 114.28L94.6801 121.216L98.6258 127.711C99.5026 129.187 100.969 129.861 102.19 129.88H120.814L124.175 124.311C124.584 123.637 124.079 122.791 123.266 122.791Z" fill="url(#paint5_linear_331_85)"/>
<path d="M61.2078 113.008C60.8508 112.388 60.1772 112.003 59.4439 112.003L54 112V116.017H57.5188C57.6711 116.017 57.7786 116.18 57.701 116.308C57.701 116.31 57.6995 116.31 57.6995 116.311L55.4562 120H60.1265C60.4386 120 60.7269 119.839 60.8882 119.577L63 116.13L61.2078 113.008Z" fill="url(#paint6_linear_331_85)"/>
<path d="M48.642 107.664H55.3008L57.2737 104.256L58 103H56.691H45.9725C45.2024 103.012 44.2793 103.456 43.7248 104.426L38 114.337L40.6695 119L46.3943 109.089C46.9488 108.12 47.8719 107.677 48.642 107.664Z" fill="url(#paint7_linear_331_85)"/>
<path d="M59.3245 121.456H48.5276C47.7449 121.444 46.8065 121.011 46.2428 120.065L43.6786 116L41 120.446L43.5293 124.61C44.0914 125.556 45.0314 125.988 45.8141 126H57.7526L59.9072 122.43C60.1692 121.998 59.8453 121.456 59.3245 121.456Z" fill="url(#paint8_linear_331_85)"/>
<path d="M87.2078 45.008C86.8508 44.3881 86.1772 44.0029 85.4439 44.0029L80 44V48.0174H83.5188C83.6711 48.0174 83.7786 48.1796 83.701 48.3085C83.701 48.3099 83.6995 48.3099 83.6995 48.3114L81.4562 52H86.1265C86.4386 52 86.7269 51.8392 86.8882 51.5771L89 48.1303L87.2078 45.008Z" fill="url(#paint9_linear_331_85)"/>
<path d="M74.642 39.6642H81.3008L83.2737 36.2564L84 35H82.691H71.9725C71.2024 35.0124 70.2793 35.4559 69.7248 36.4264L64 46.3374L66.6695 51L72.3943 41.0891C72.9488 40.1201 73.8719 39.6765 74.642 39.6642Z" fill="url(#paint10_linear_331_85)"/>
<path d="M85.3245 53.4556H74.5276C73.7449 53.4436 72.8065 53.0113 72.2428 52.0654L69.6786 48L67 52.4465L69.5293 56.6097C70.0914 57.5557 71.0314 57.988 71.8141 58H83.7526L85.9072 54.4302C86.1692 53.9979 85.8453 53.4556 85.3245 53.4556Z" fill="url(#paint11_linear_331_85)"/>
<defs>
<linearGradient id="paint0_linear_331_85" x1="77.1352" y1="17.0714" x2="77.1352" y2="74.6059" gradientUnits="userSpaceOnUse">
<stop stop-color="#5465FF"/>
<stop offset="1" stop-color="#76F4C3"/>
</linearGradient>
<linearGradient id="paint1_linear_331_85" x1="150.279" y1="108.34" x2="150.279" y2="114.435" gradientUnits="userSpaceOnUse">
<stop stop-color="#5465FF"/>
<stop offset="1" stop-color="#76F4C3"/>
</linearGradient>
<linearGradient id="paint2_linear_331_85" x1="79.6334" y1="3.36969" x2="79.6334" y2="157.63" gradientUnits="userSpaceOnUse">
<stop stop-color="#5465FF"/>
<stop offset="1" stop-color="#76F4C3"/>
</linearGradient>
<linearGradient id="paint3_linear_331_85" x1="131.33" y1="97.6427" x2="106.118" y2="137.408" gradientUnits="userSpaceOnUse">
<stop offset="0.1336" stop-color="#5465FF"/>
<stop offset="0.252" stop-color="#556AFD"/>
<stop offset="0.3953" stop-color="#5979F7"/>
<stop offset="0.5515" stop-color="#5F91EC"/>
<stop offset="0.7168" stop-color="#67B4DE"/>
<stop offset="0.8877" stop-color="#71DFCC"/>
<stop offset="0.961" stop-color="#76F4C3"/>
</linearGradient>
<linearGradient id="paint4_linear_331_85" x1="116.103" y1="86.4199" x2="88.972" y2="128.36" gradientUnits="userSpaceOnUse">
<stop offset="0.1336" stop-color="#5465FF"/>
<stop offset="0.252" stop-color="#556AFD"/>
<stop offset="0.3953" stop-color="#5979F7"/>
<stop offset="0.5515" stop-color="#5F91EC"/>
<stop offset="0.7168" stop-color="#67B4DE"/>
<stop offset="0.8877" stop-color="#71DFCC"/>
<stop offset="0.961" stop-color="#76F4C3"/>
</linearGradient>
<linearGradient id="paint5_linear_331_85" x1="128.155" y1="95.5027" x2="102.182" y2="137.375" gradientUnits="userSpaceOnUse">
<stop offset="0.1336" stop-color="#5465FF"/>
<stop offset="0.252" stop-color="#556AFD"/>
<stop offset="0.3953" stop-color="#5979F7"/>
<stop offset="0.5515" stop-color="#5F91EC"/>
<stop offset="0.7168" stop-color="#67B4DE"/>
<stop offset="0.8877" stop-color="#71DFCC"/>
<stop offset="0.961" stop-color="#76F4C3"/>
</linearGradient>
<linearGradient id="paint6_linear_331_85" x1="64.4933" y1="105.335" x2="48.3321" y2="130.825" gradientUnits="userSpaceOnUse">
<stop offset="0.1336" stop-color="#5465FF"/>
<stop offset="0.252" stop-color="#556AFD"/>
<stop offset="0.3953" stop-color="#5979F7"/>
<stop offset="0.5515" stop-color="#5F91EC"/>
<stop offset="0.7168" stop-color="#67B4DE"/>
<stop offset="0.8877" stop-color="#71DFCC"/>
<stop offset="0.961" stop-color="#76F4C3"/>
</linearGradient>
<linearGradient id="paint7_linear_331_85" x1="54.733" y1="98.1409" x2="37.341" y2="125.026" gradientUnits="userSpaceOnUse">
<stop offset="0.1336" stop-color="#5465FF"/>
<stop offset="0.252" stop-color="#556AFD"/>
<stop offset="0.3953" stop-color="#5979F7"/>
<stop offset="0.5515" stop-color="#5F91EC"/>
<stop offset="0.7168" stop-color="#67B4DE"/>
<stop offset="0.8877" stop-color="#71DFCC"/>
<stop offset="0.961" stop-color="#76F4C3"/>
</linearGradient>
<linearGradient id="paint8_linear_331_85" x1="62.4583" y1="103.963" x2="45.8092" y2="130.805" gradientUnits="userSpaceOnUse">
<stop offset="0.1336" stop-color="#5465FF"/>
<stop offset="0.252" stop-color="#556AFD"/>
<stop offset="0.3953" stop-color="#5979F7"/>
<stop offset="0.5515" stop-color="#5F91EC"/>
<stop offset="0.7168" stop-color="#67B4DE"/>
<stop offset="0.8877" stop-color="#71DFCC"/>
<stop offset="0.961" stop-color="#76F4C3"/>
</linearGradient>
<linearGradient id="paint9_linear_331_85" x1="90.4933" y1="37.3351" x2="74.3321" y2="62.8253" gradientUnits="userSpaceOnUse">
<stop offset="0.1336" stop-color="#5465FF"/>
<stop offset="0.252" stop-color="#556AFD"/>
<stop offset="0.3953" stop-color="#5979F7"/>
<stop offset="0.5515" stop-color="#5F91EC"/>
<stop offset="0.7168" stop-color="#67B4DE"/>
<stop offset="0.8877" stop-color="#71DFCC"/>
<stop offset="0.961" stop-color="#76F4C3"/>
</linearGradient>
<linearGradient id="paint10_linear_331_85" x1="80.733" y1="30.1409" x2="63.341" y2="57.0256" gradientUnits="userSpaceOnUse">
<stop offset="0.1336" stop-color="#5465FF"/>
<stop offset="0.252" stop-color="#556AFD"/>
<stop offset="0.3953" stop-color="#5979F7"/>
<stop offset="0.5515" stop-color="#5F91EC"/>
<stop offset="0.7168" stop-color="#67B4DE"/>
<stop offset="0.8877" stop-color="#71DFCC"/>
<stop offset="0.961" stop-color="#76F4C3"/>
</linearGradient>
<linearGradient id="paint11_linear_331_85" x1="88.4583" y1="35.9633" x2="71.8092" y2="62.8047" gradientUnits="userSpaceOnUse">
<stop offset="0.1336" stop-color="#5465FF"/>
<stop offset="0.252" stop-color="#556AFD"/>
<stop offset="0.3953" stop-color="#5979F7"/>
<stop offset="0.5515" stop-color="#5F91EC"/>
<stop offset="0.7168" stop-color="#67B4DE"/>
<stop offset="0.8877" stop-color="#71DFCC"/>
<stop offset="0.961" stop-color="#76F4C3"/>
</linearGradient>
</defs>
</svg>
