<svg width="130" height="130" viewBox="0 0 130 130" fill="none" xmlns="http://www.w3.org/2000/svg">
<g clip-path="url(#clip0_331_84)">
<path d="M26.9136 20.3134C28.3157 20.3134 29.4527 19.1765 29.4527 17.7744V12.6964H34.5307C35.9327 12.6964 37.0697 11.5594 37.0697 10.1574C37.0697 8.75531 35.9327 7.61834 34.5307 7.61834H29.4527V2.5403C29.4527 1.13825 28.3157 0.00128174 26.9136 0.00128174C25.5116 0.00128174 24.3746 1.13825 24.3746 2.5403V7.61834H19.2966C17.8945 7.61834 16.7576 8.75531 16.7576 10.1574C16.7576 11.5594 17.8945 12.6964 19.2966 12.6964H24.3746V17.7744C24.3746 19.1765 25.5116 20.3134 26.9136 20.3134Z" fill="url(#paint0_linear_331_84)"/>
<path d="M119.842 66.0158C121.244 66.0158 122.381 64.8788 122.381 63.4767V58.3987H127.459C128.861 58.3987 129.998 57.2617 129.998 55.8597C129.998 54.4576 128.861 53.3207 127.459 53.3207H122.381V48.2426C122.381 46.8406 121.244 45.7036 119.842 45.7036C118.44 45.7036 117.303 46.8406 117.303 48.2426V53.3207H112.225C110.823 53.3207 109.686 54.4576 109.686 55.8597C109.686 57.2617 110.823 58.3987 112.225 58.3987H117.303V63.4767C117.303 64.8788 118.44 66.0158 119.842 66.0158Z" fill="url(#paint1_linear_331_84)"/>
<path d="M40 33.0072C40 51.2077 54.8068 66.0145 73.0072 66.0145C91.2077 66.0145 106.014 51.2077 106.014 33.0072C106.014 14.8068 91.2077 0 73.0072 0C54.8068 0 40 14.8068 40 33.0072ZM45.078 33.0072C45.078 18.463 56.2535 6.48186 70.4682 5.19458V15.5555C66.0927 16.6859 62.8512 20.6666 62.8512 25.3902C62.8512 30.9902 67.4072 35.5462 73.0072 35.5462C75.8073 35.5462 78.0853 37.8243 78.0853 40.6243C78.0853 43.4243 75.8073 45.7023 73.0072 45.7023C70.2072 45.7023 67.9292 43.4243 67.9292 40.6243C67.9292 39.2222 66.7922 38.0853 65.3902 38.0853C63.9881 38.0853 62.8512 39.2222 62.8512 40.6243C62.8512 45.3479 66.0927 49.3285 70.4682 50.4589V60.8199C56.2535 59.5326 45.078 47.5515 45.078 33.0072ZM100.936 33.0072C100.936 47.5515 89.7609 59.5326 75.5462 60.8199V50.4589C79.9217 49.3285 83.1633 45.3479 83.1633 40.6243C83.1633 35.0242 78.6073 30.4682 73.0072 30.4682C70.2072 30.4682 67.9292 28.1902 67.9292 25.3902C67.9292 22.5901 70.2072 20.3121 73.0072 20.3121C75.8073 20.3121 78.0853 22.5901 78.0853 25.3902C78.0853 26.7922 79.2222 27.9292 80.6243 27.9292C82.0263 27.9292 83.1633 26.7922 83.1633 25.3902C83.1633 20.6666 79.9217 16.6859 75.5462 15.5555V5.19458C89.7609 6.48161 100.936 18.463 100.936 33.0072Z" fill="url(#paint2_linear_331_84)"/>
<path d="M50.7804 126.444C52.1827 126.444 53.3195 125.307 53.3195 123.905C53.3195 122.503 52.1827 121.366 50.7804 121.366C49.3781 121.366 48.2413 122.503 48.2413 123.905C48.2413 125.307 49.3781 126.444 50.7804 126.444Z" fill="url(#paint3_linear_331_84)"/>
<path d="M113.5 84.0763C113.436 84.1268 114.568 83.1902 91.7967 102.07H90.5459C91.413 100.575 91.9124 98.8407 91.9124 96.9915C91.9124 91.3915 87.3564 86.8354 81.7564 86.8354H56.9293C54.726 84.6826 48.3701 79.2184 40.6243 79.2184C34.8561 79.2184 29.8624 82.2477 26.7767 84.6839C25.0794 81.4393 21.6817 79.2186 17.7731 79.2186H2.53902C1.13697 79.2186 0 80.3556 0 81.7577V127.46C0 128.862 1.13697 129.999 2.53902 129.999H25.3902C26.7922 129.999 27.9292 128.862 27.9292 127.46V122.823L39.0915 124.62C40.4778 124.843 41.779 123.902 42.002 122.517C42.2249 121.133 41.2832 119.83 39.8989 119.607L27.9292 117.68V90.4129C29.6936 88.71 34.8262 84.2964 40.6243 84.2964C47.7716 84.2964 53.9089 91.004 53.9668 91.0682C54.4485 91.606 55.1363 91.9135 55.8584 91.9135H81.7564C84.5564 91.9135 86.8344 94.1915 86.8344 96.9915C86.8344 99.7915 84.5564 102.07 81.7564 102.07H59.6669C58.2649 102.07 57.1279 103.207 57.1279 104.609C57.1279 106.011 58.2649 107.148 59.6669 107.148H92.7122C93.3041 107.148 93.8771 106.941 94.3329 106.563L116.664 88.0483C118.854 86.3434 121.954 86.6757 123.734 88.8118C125.555 90.9961 125.249 94.2583 123.02 96.0594C123.02 96.0594 95.3089 117.726 95.2898 117.742C89.7137 122.371 82.6514 124.92 75.4038 124.92C71.5417 124.92 69.5772 124.304 62.4611 123.239C61.0738 123.014 59.7736 123.957 59.5506 125.342C59.3277 126.726 60.2694 128.029 61.6537 128.252C68.6352 129.289 70.9828 129.998 75.4035 129.998C83.8203 129.998 92.0231 127.042 98.504 121.673C98.504 121.673 126.181 100.034 126.19 100.027C130.635 96.4535 131.287 89.9417 127.634 85.5598C124.075 81.2902 117.867 80.6379 113.5 84.0763ZM22.8512 124.921H5.07804V84.2967H17.7731C20.5732 84.2967 22.8512 86.5747 22.8512 89.3747V124.921Z" fill="url(#paint4_linear_331_84)"/>
<circle cx="73" cy="33" r="28" fill="#1C1C1D"/>
<path d="M86.9191 30.1917C86.7248 29.589 86.2079 29.1496 85.5855 29.0583L77.9119 27.934L74.4816 20.9282C74.2032 20.3598 73.629 20 73 20C72.371 20 71.7968 20.3598 71.5184 20.9282L68.0881 27.934L60.4145 29.0583C59.7921 29.1496 59.2752 29.589 59.0809 30.1917C58.8866 30.7944 59.0487 31.4561 59.499 31.8985L65.0509 37.3516L63.7406 45.0536C63.6342 45.6783 63.8892 46.3095 64.398 46.6822C64.9067 47.0546 65.5812 47.1036 66.1378 46.8087L73 43.1718L79.8622 46.8085C80.4146 47.1014 81.0897 47.0571 81.602 46.682C82.1108 46.3095 82.3658 45.6782 82.2594 45.0534L80.9491 37.3514L86.501 31.8983C86.9513 31.4561 87.1134 30.7944 86.9191 30.1917ZM78.0209 35.5777C77.6315 35.9601 77.4537 36.5113 77.5458 37.0516L78.4371 42.291L73.7691 39.8171C73.5283 39.6894 73.2642 39.6258 73.0002 39.6258C72.7362 39.6258 72.4718 39.6896 72.2313 39.8171L67.5633 42.291L68.4546 37.0516C68.5466 36.5114 68.3687 35.9603 67.9794 35.5777L64.2026 31.8684L69.423 31.1035C69.9611 31.0245 70.4262 30.6839 70.6667 30.1925L73 25.4276L75.3333 30.1925C75.5738 30.6839 76.0389 31.0245 76.577 31.1035L81.7974 31.8684L78.0209 35.5777Z" fill="url(#paint5_linear_331_84)"/>
</g>
<defs>
<linearGradient id="paint0_linear_331_84" x1="26.9136" y1="0.00128174" x2="26.9136" y2="20.3134" gradientUnits="userSpaceOnUse">
<stop stop-color="#5465FF"/>
<stop offset="1" stop-color="#76F4C3"/>
</linearGradient>
<linearGradient id="paint1_linear_331_84" x1="119.842" y1="45.7036" x2="119.842" y2="66.0158" gradientUnits="userSpaceOnUse">
<stop stop-color="#5465FF"/>
<stop offset="1" stop-color="#76F4C3"/>
</linearGradient>
<linearGradient id="paint2_linear_331_84" x1="73.0072" y1="0" x2="73.0072" y2="66.0145" gradientUnits="userSpaceOnUse">
<stop stop-color="#5465FF"/>
<stop offset="1" stop-color="#76F4C3"/>
</linearGradient>
<linearGradient id="paint3_linear_331_84" x1="50.7804" y1="121.366" x2="50.7804" y2="126.444" gradientUnits="userSpaceOnUse">
<stop stop-color="#5465FF"/>
<stop offset="1" stop-color="#76F4C3"/>
</linearGradient>
<linearGradient id="paint4_linear_331_84" x1="64.9998" y1="79.2184" x2="64.9998" y2="129.999" gradientUnits="userSpaceOnUse">
<stop stop-color="#5465FF"/>
<stop offset="1" stop-color="#76F4C3"/>
</linearGradient>
<linearGradient id="paint5_linear_331_84" x1="73" y1="20" x2="73" y2="47" gradientUnits="userSpaceOnUse">
<stop stop-color="#5465FF"/>
<stop offset="1" stop-color="#76F4C3"/>
</linearGradient>
<clipPath id="clip0_331_84">
<rect width="130" height="130" fill="white"/>
</clipPath>
</defs>
</svg>
