<svg width="162" height="162" viewBox="0 0 162 162" fill="none" xmlns="http://www.w3.org/2000/svg">
<g clip-path="url(#clip0_331_83)">
<path d="M132.152 64.7488H71.8033C74.5939 61.5411 76.2895 57.3567 76.2895 52.7812C76.2895 42.7122 68.098 34.5207 58.029 34.5207C47.96 34.5207 39.7685 42.7122 39.7685 52.7812C39.7685 57.3567 41.4641 61.5411 44.2544 64.7488H29.8486C21.1433 64.7488 14.061 71.8311 14.061 80.5363V99.1653C14.061 100.909 15.4747 102.323 17.2185 102.323C18.9624 102.323 20.376 100.909 20.376 99.1653V80.5363C20.376 75.3132 24.6254 71.0638 29.8486 71.0638H118.259C123.482 71.0638 127.731 75.3132 127.731 80.5363V97.5868H94.8932C86.188 97.5868 79.1057 104.669 79.1057 113.374C79.1057 122.08 86.188 129.162 94.8932 129.162H127.731V146.212C127.731 151.436 123.482 155.685 118.259 155.685H29.8486C24.6254 155.685 20.376 151.436 20.376 146.212V127.559C20.376 125.815 18.9624 124.401 17.2185 124.401C15.4747 124.401 14.061 125.815 14.061 127.559V146.212C14.061 154.918 21.1433 162 29.8486 162H132.152C140.857 162 147.939 154.918 147.939 146.212V80.5363C147.939 71.8311 140.857 64.7488 132.152 64.7488ZM58.029 40.836C64.6159 40.836 69.9745 46.1946 69.9745 52.7815C69.9745 59.3684 64.6159 64.727 58.029 64.727C51.4424 64.727 46.0835 59.3684 46.0835 52.7815C46.0835 46.1946 51.4421 40.836 58.029 40.836ZM130.88 71.0638H132.152C137.375 71.0638 141.624 75.3132 141.624 80.5363V97.5868H134.046V80.5363C134.046 76.9851 132.867 73.7044 130.88 71.0638ZM85.4207 113.374C85.4207 108.151 89.6701 103.902 94.8932 103.902H141.624V122.847H94.8932C89.6701 122.847 85.4207 118.598 85.4207 113.374ZM132.152 155.685H130.88C132.867 153.044 134.046 149.764 134.046 146.212V129.162H141.624V146.212C141.624 151.436 137.375 155.685 132.152 155.685Z" fill="url(#paint0_linear_331_83)"/>
<path d="M94.085 110.217C93.2514 110.217 92.4368 110.554 91.8495 111.142C91.2622 111.729 90.9275 112.544 90.9275 113.374C90.9275 114.204 91.2622 115.019 91.8495 115.606C92.4399 116.194 93.2514 116.532 94.085 116.532C94.9154 116.532 95.7269 116.194 96.3174 115.606C96.9047 115.019 97.2425 114.204 97.2425 113.374C97.2425 112.544 96.9047 111.729 96.3174 111.142C95.7301 110.554 94.9154 110.217 94.085 110.217Z" fill="url(#paint1_linear_331_83)"/>
<path d="M103.971 43.4662C114.04 43.4662 122.232 35.2747 122.232 25.2057C122.232 15.1371 114.04 6.94525 103.971 6.94525C93.9025 6.94525 85.7109 15.1368 85.7109 25.2057C85.7109 35.2747 93.9025 43.4662 103.971 43.4662ZM103.971 13.2606C110.558 13.2606 115.917 18.6192 115.917 25.2061C115.917 31.7929 110.558 37.1515 103.971 37.1515C97.3846 37.1515 92.026 31.7929 92.026 25.2061C92.026 18.6192 97.3846 13.2606 103.971 13.2606Z" fill="url(#paint2_linear_331_83)"/>
<path d="M73.1321 31.127C74.876 31.127 76.2896 29.7134 76.2896 27.9695V3.15751C76.2896 1.41362 74.876 0 73.1321 0C71.3882 0 69.9746 1.41362 69.9746 3.15751V27.9695C69.9746 29.7134 71.3882 31.127 73.1321 31.127Z" fill="url(#paint3_linear_331_83)"/>
<path d="M57.9759 20.208C59.7198 20.208 61.1334 18.7944 61.1334 17.0505V3.15751C61.1334 1.41362 59.7198 0 57.9759 0C56.232 0 54.8184 1.41362 54.8184 3.15751V17.0505C54.8184 18.7944 56.232 20.208 57.9759 20.208Z" fill="url(#paint4_linear_331_83)"/>
<path d="M17.2185 116.532C18.049 116.532 18.8636 116.194 19.4509 115.606C20.0382 115.019 20.376 114.204 20.376 113.374C20.376 112.544 20.0382 111.729 19.4509 111.142C18.8636 110.554 18.0521 110.217 17.2185 110.217C16.3881 110.217 15.5735 110.554 14.9862 111.142C14.3989 111.729 14.061 112.544 14.061 113.374C14.061 114.204 14.3989 115.019 14.9862 115.606C15.5735 116.194 16.3878 116.532 17.2185 116.532Z" fill="url(#paint5_linear_331_83)"/>
</g>
<defs>
<linearGradient id="paint0_linear_331_83" x1="81.0002" y1="34.5207" x2="81.0002" y2="162" gradientUnits="userSpaceOnUse">
<stop stop-color="#5465FF"/>
<stop offset="1" stop-color="#76F4C3"/>
</linearGradient>
<linearGradient id="paint1_linear_331_83" x1="94.085" y1="110.217" x2="94.085" y2="116.532" gradientUnits="userSpaceOnUse">
<stop stop-color="#5465FF"/>
<stop offset="1" stop-color="#76F4C3"/>
</linearGradient>
<linearGradient id="paint2_linear_331_83" x1="103.971" y1="6.94525" x2="103.971" y2="43.4662" gradientUnits="userSpaceOnUse">
<stop stop-color="#5465FF"/>
<stop offset="1" stop-color="#76F4C3"/>
</linearGradient>
<linearGradient id="paint3_linear_331_83" x1="73.1321" y1="0" x2="73.1321" y2="31.127" gradientUnits="userSpaceOnUse">
<stop stop-color="#5465FF"/>
<stop offset="1" stop-color="#76F4C3"/>
</linearGradient>
<linearGradient id="paint4_linear_331_83" x1="57.9759" y1="0" x2="57.9759" y2="20.208" gradientUnits="userSpaceOnUse">
<stop stop-color="#5465FF"/>
<stop offset="1" stop-color="#76F4C3"/>
</linearGradient>
<linearGradient id="paint5_linear_331_83" x1="17.2185" y1="110.217" x2="17.2185" y2="116.532" gradientUnits="userSpaceOnUse">
<stop stop-color="#5465FF"/>
<stop offset="1" stop-color="#76F4C3"/>
</linearGradient>
<clipPath id="clip0_331_83">
<rect width="162" height="162" fill="white"/>
</clipPath>
</defs>
</svg>
