<svg width="39" height="39" viewBox="0 0 39 39" fill="none" xmlns="http://www.w3.org/2000/svg">
<path fill-rule="evenodd" clip-rule="evenodd" d="M19.5 38C14.5859 38 9.88867 36.0488 6.41992 32.5801C2.95117 29.1113 1 24.4141 1 19.5C1 14.5859 2.95117 9.88867 6.41992 6.41992C9.88867 2.95117 14.5859 1 19.5 1C24.4141 1 29.1113 2.95117 32.5801 6.41992C36.0488 9.88867 38 14.5859 38 19.5C38 24.4141 36.0488 29.1113 32.5801 32.5801C29.1113 36.0488 24.4141 38 19.5 38ZM19.5 2.01172C9.88867 2.01172 2.01172 9.88867 2.01172 19.5C2.01172 29.1113 9.88867 36.9883 19.5 36.9883C29.1113 36.9883 36.9883 29.1113 36.9883 19.5C36.9883 9.88867 29.1113 2.01172 19.5 2.01172Z" fill="white" stroke="white" stroke-width="0.3"/>
<path fill-rule="evenodd" clip-rule="evenodd" d="M19.5 31.5684C12.8516 31.5684 7.43164 26.1484 7.43164 19.5C7.43164 12.8516 12.8516 7.43164 19.5 7.43164C26.1484 7.43164 31.5684 12.8516 31.5684 19.5C31.5684 26.1484 26.1484 31.5684 19.5 31.5684ZM19.5 8.44336C13.4297 8.44336 8.44336 13.4297 8.44336 19.5C8.44336 25.5703 13.4297 30.5566 19.5 30.5566C25.5703 30.5566 30.5566 25.5703 30.5566 19.5C30.5566 13.4297 25.5703 8.44336 19.5 8.44336Z" fill="white" stroke="white" stroke-width="0.3"/>
<path fill-rule="evenodd" clip-rule="evenodd" d="M19.5 8.44336C19.2109 8.44336 18.9941 8.22656 18.9941 7.9375V1.50586C18.9941 1.2168 19.2109 1 19.5 1C19.7891 1 20.0059 1.2168 20.0059 1.50586V7.9375C20.0059 8.22656 19.7891 8.44336 19.5 8.44336Z" fill="white" stroke="white" stroke-width="0.3"/>
<path fill-rule="evenodd" clip-rule="evenodd" d="M27.0156 11.2617C26.8711 11.2617 26.7266 11.1895 26.6543 11.1172C26.4375 10.9004 26.4375 10.5391 26.6543 10.3945L31.207 5.76953C31.4238 5.625 31.7129 5.625 31.9297 5.76953C32.1465 5.98633 32.1465 6.27539 31.9297 6.49219L27.377 11.1172C27.2324 11.1895 27.1602 11.2617 27.0156 11.2617Z" fill="white" stroke="white" stroke-width="0.3"/>
<path fill-rule="evenodd" clip-rule="evenodd" d="M37.4219 18.7051H30.9902C30.7012 18.7051 30.4844 18.4883 30.4844 18.1992C30.4844 17.9824 30.7012 17.6934 30.9902 17.6934H37.4219C37.7109 17.6934 37.9277 17.9824 37.9277 18.1992C37.9277 18.4883 37.7109 18.7051 37.4219 18.7051Z" fill="white" stroke="white" stroke-width="0.3"/>
<path fill-rule="evenodd" clip-rule="evenodd" d="M32.8689 32.0737C32.7244 32.0737 32.5798 32.0015 32.5076 31.9292L27.8826 27.3765C27.738 27.1597 27.738 26.8706 27.8826 26.6538C28.0994 26.437 28.4607 26.437 28.6052 26.6538L33.2302 31.2065C33.3748 31.4233 33.3748 31.7124 33.2302 31.9292C33.0857 32.0015 32.9412 32.0737 32.8689 32.0737Z" fill="white" stroke="white" stroke-width="0.3"/>
<path fill-rule="evenodd" clip-rule="evenodd" d="M19.5 38C19.2109 38 18.9941 37.7832 18.9941 37.4941V31.0625C18.9941 30.7734 19.2109 30.5566 19.5 30.5566C19.7891 30.5566 20.0059 30.7734 20.0059 31.0625V37.4941C20.0059 37.7832 19.7891 38 19.5 38Z" fill="white" stroke="white" stroke-width="0.3"/>
<path fill-rule="evenodd" clip-rule="evenodd" d="M6.13086 32.0737C6.05859 32.0737 5.91406 32.0015 5.76953 31.9292C5.625 31.7124 5.625 31.4233 5.76953 31.2065L10.3945 26.6538C10.5391 26.437 10.9004 26.437 11.1172 26.6538C11.2617 26.8706 11.2617 27.1597 11.1172 27.3765L6.49219 31.9292C6.41992 32.0015 6.27539 32.0737 6.13086 32.0737Z" fill="white" stroke="white" stroke-width="0.3"/>
<path fill-rule="evenodd" clip-rule="evenodd" d="M8.00976 18.7051H1.57812C1.28906 18.7051 1.07227 18.4883 1.07227 18.1992C1.07227 17.9824 1.28906 17.6934 1.57812 17.6934H8.00976C8.29883 17.6934 8.51562 17.9824 8.51562 18.1992C8.51562 18.4883 8.29883 18.7051 8.00976 18.7051Z" fill="white" stroke="white" stroke-width="0.3"/>
<path fill-rule="evenodd" clip-rule="evenodd" d="M11.9844 11.2617C11.8398 11.2617 11.7676 11.1895 11.623 11.1172L7.07031 6.49219C6.85352 6.34766 6.85352 5.98633 7.07031 5.76953C7.28711 5.625 7.57617 5.625 7.79297 5.76953L12.3457 10.3945C12.5625 10.5391 12.5625 10.9004 12.3457 11.1172C12.2734 11.1895 12.1289 11.2617 11.9844 11.2617Z" fill="white" stroke="white" stroke-width="0.3"/>
<path fill-rule="evenodd" clip-rule="evenodd" d="M33.375 38H5.625C5.33594 38 5.11914 37.7832 5.11914 37.4941C5.11914 37.2051 5.33594 36.9883 5.625 36.9883H33.375C33.6641 36.9883 33.8809 37.2051 33.8809 37.4941C33.8809 37.7832 33.6641 38 33.375 38Z" fill="white" stroke="white" stroke-width="0.3"/>
</svg>
