<svg width="25" height="19" viewBox="0 0 25 19" fill="none" xmlns="http://www.w3.org/2000/svg">
<path d="M21.3751 6.41707C22.0861 5.72073 22.5001 4.7695 22.5001 3.75002C22.5001 1.68233 20.818 0 18.7501 0C18.0669 0 17.3947 0.187794 16.8055 0.543215C16.6086 0.662259 16.5451 0.918168 16.6639 1.11534C16.7827 1.31251 17.039 1.37535 17.236 1.25694C17.6954 0.979838 18.2187 0.833353 18.7501 0.833353C20.3581 0.833353 21.6667 2.14176 21.6667 3.75002C21.6667 4.7404 21.1707 5.65329 20.3382 6.19324C19.6391 6.65183 18.7529 6.78406 17.9436 6.55354C17.7247 6.49046 17.4919 6.61824 17.4284 6.83958C17.3654 7.06092 17.4935 7.29144 17.7149 7.35472C18.0518 7.45115 18.4001 7.49998 18.7501 7.49998C19.4053 7.49998 20.0386 7.32127 20.6008 6.99851C22.7398 7.77357 24.1667 9.79306 24.1667 12.0833V14.1667H20.3673C20.0722 11.3837 18.3213 8.94833 15.7674 7.79193C16.5801 6.96448 17.0834 5.83206 17.0834 4.58337C17.0834 2.05606 15.0273 0 12.5 0C9.97279 0 7.91668 2.05606 7.91668 4.58337C7.91668 5.83245 8.4202 6.96521 9.23334 7.79276C8.37386 8.18324 7.57674 8.72953 6.90066 9.40175C5.60461 10.7015 4.81594 12.3697 4.62873 14.1668H0.833353V12.0834C0.833353 10.6406 1.39693 9.28012 2.41866 8.25409C2.98112 7.6952 3.66588 7.26883 4.40319 7.00086C4.96555 7.3223 5.59695 7.50003 6.25002 7.50003C6.59998 7.50003 6.94827 7.4512 7.28519 7.35477C7.50652 7.29148 7.6347 7.06097 7.57166 6.83963C7.50818 6.61829 7.27542 6.4907 7.05652 6.55359C6.24758 6.7845 5.36179 6.65247 4.65988 6.19226C3.82941 5.65329 3.33336 4.74045 3.33336 3.75002C3.33336 2.14176 4.64196 0.833353 6.25002 0.833353C6.78142 0.833353 7.30472 0.979838 7.76409 1.25694C7.96185 1.37535 8.21698 1.31187 8.33622 1.11534C8.45501 0.918217 8.39154 0.662259 8.19461 0.543215C7.6054 0.187794 6.93323 0 6.25002 0C4.18215 0 2.50001 1.68233 2.50001 3.75002C2.50001 4.76872 2.91334 5.71921 3.62228 6.41492C2.96149 6.7221 2.35118 7.14617 1.82945 7.66444C0.649807 8.8493 0 10.4185 0 12.0834V14.5834C0 14.8135 0.186378 15.0001 0.416652 15.0001H4.58332V18.3334C4.58332 18.5636 4.7697 18.7501 4.99997 18.7501H20C20.2304 18.7501 20.4167 18.5635 20.4167 18.3334V15.0001H24.5833C24.8137 15.0001 25 14.8135 25 14.5834V12.0834C25.0001 9.61977 23.5684 7.42816 21.3751 6.41707ZM8.75003 4.58337C8.75003 2.51568 10.4322 0.833353 12.5 0.833353C14.5679 0.833353 16.2501 2.51568 16.2501 4.58337C16.2501 6.65105 14.5679 8.33338 12.5 8.33338C10.4322 8.33338 8.75003 6.651 8.75003 4.58337ZM19.5834 17.9167H5.41667V15.0001C5.41667 13.1108 6.15315 11.3316 7.48943 9.9913C8.19339 9.2911 9.04681 8.74798 9.96181 8.39662C10.6891 8.88231 11.5618 9.16669 12.5 9.16669C13.4399 9.16669 14.3141 8.88148 15.0421 8.39432C17.7656 9.44076 19.5834 12.0665 19.5834 15.0001V17.9167Z" fill="white"/>
</svg>
