<svg width="30" height="39" viewBox="0 0 30 39" fill="currentcolor" xmlns="http://www.w3.org/2000/svg">
<path d="M8.52868 28.2652V27.9628L8.26087 27.8224C5.98594 26.6295 4.06902 24.8533 2.70647 22.6758C1.34392 20.4982 0.584739 17.9976 0.506691 15.4301C0.428644 12.8625 1.03454 10.3204 2.26231 8.06412C3.49007 5.80782 5.29558 3.91847 7.49385 2.5896C9.69212 1.26074 12.2041 0.540142 14.7726 0.501629C17.341 0.463116 19.8735 1.10807 22.1106 2.37043C24.3477 3.63278 26.2091 5.46716 27.5039 7.68562C28.7988 9.90402 29.4806 12.4267 29.4796 14.9954C29.4772 17.6376 28.753 20.229 27.3852 22.4897C26.0174 24.7503 24.058 26.5943 21.7185 27.8225L21.4509 27.963V28.2652V38.13C21.4509 38.13 21.4509 38.1301 21.4509 38.1302C21.4509 38.1984 21.4319 38.2654 21.3962 38.3236C21.3604 38.3818 21.3092 38.429 21.2483 38.4599C21.1873 38.4909 21.119 38.5043 21.0509 38.4988C20.9828 38.4933 20.9176 38.469 20.8624 38.4287C20.8624 38.4287 20.8623 38.4287 20.8623 38.4286L15.285 34.348L14.9898 34.132L14.6946 34.348L9.11731 38.4286C9.11727 38.4287 9.11724 38.4287 9.11721 38.4287C9.06205 38.469 8.99682 38.4933 8.92874 38.4988C8.86063 38.5043 8.7923 38.4909 8.73134 38.4599C8.67039 38.429 8.61919 38.3818 8.58342 38.3236C8.54767 38.2654 8.52873 38.1984 8.52868 38.1302C8.52868 38.1301 8.52868 38.13 8.52868 38.13V28.2652Z" fill="#272727" stroke="currentcolor" stroke-width="2"/>
<path d="M23.3935 12.101L23.4301 12.1063C23.4845 12.1201 23.5352 12.146 23.5783 12.1824C23.6311 12.227 23.6704 12.2854 23.6918 12.3511C23.7131 12.4168 23.7157 12.4872 23.6992 12.5543C23.6827 12.6212 23.6478 12.6823 23.5985 12.7305C23.5985 12.7306 23.5984 12.7307 23.5983 12.7308L19.7506 16.4825L19.5626 16.6659L19.6069 16.9248L20.5131 22.2209C20.5131 22.221 20.5131 22.2212 20.5131 22.2213C20.5245 22.2891 20.5167 22.3587 20.4907 22.4223C20.4647 22.486 20.4213 22.5412 20.3656 22.5817C20.3099 22.6222 20.244 22.6463 20.1754 22.6514C20.1069 22.6565 20.0384 22.6424 19.9775 22.6108C19.9773 22.6107 19.9771 22.6106 19.9769 22.6104L15.2224 20.1107L14.9896 19.9883L14.7569 20.1108L10.0031 22.6127C10.0031 22.6127 10.0031 22.6127 10.003 22.6127C9.94192 22.6448 9.87305 22.6592 9.80421 22.6542C9.73533 22.6492 9.66921 22.6251 9.61334 22.5845C9.55747 22.5439 9.51407 22.4885 9.48805 22.4245C9.46204 22.3605 9.45444 22.2905 9.46612 22.2224L9.46616 22.2222L10.3726 16.9248L10.4169 16.6658L10.2287 16.4824L6.38116 12.7328C6.38112 12.7327 6.38108 12.7327 6.38104 12.7327C6.33168 12.6844 6.29679 12.6233 6.28028 12.5563C6.26376 12.4892 6.26632 12.4188 6.28768 12.3531C6.30903 12.2874 6.34832 12.229 6.40112 12.1844C6.45384 12.1399 6.51794 12.111 6.58619 12.101C6.58629 12.1009 6.58638 12.1009 6.58648 12.1009L11.9033 11.3278L12.1634 11.29L12.2797 11.0543L14.6579 6.23622L14.6581 6.23584C14.6886 6.17392 14.7359 6.12178 14.7945 6.08532C14.8531 6.04885 14.9207 6.02953 14.9897 6.02953C15.0588 6.02953 15.1264 6.04885 15.185 6.08532C15.2436 6.12178 15.2908 6.17392 15.3213 6.23584L15.3215 6.23622L17.6997 11.0543L17.8161 11.29L18.0761 11.3278L23.3935 12.101Z" fill="#272727" stroke="currentcolor" stroke-width="2"/>
</svg>
