<svg width="26" height="34" viewBox="0 0 26 34" fill="none" xmlns="http://www.w3.org/2000/svg">
<path d="M25.9739 12.9922C25.9749 10.6899 25.3637 8.42873 24.2032 6.44035C23.0426 4.45198 21.3743 2.80786 19.3692 1.67643C17.3641 0.545005 15.0943 -0.0330584 12.7923 0.00146015C10.4902 0.0359787 8.23874 0.681839 6.26847 1.87288C4.29819 3.06391 2.67995 4.75731 1.57952 6.77959C0.479099 8.80187 -0.0639551 11.0803 0.00599727 13.3816C0.0759497 15.6828 0.756394 17.9241 1.97762 19.8758C3.19885 21.8275 4.91696 23.4195 6.95594 24.4886V33.0354C6.95598 33.1747 6.99457 33.3111 7.06743 33.4298C7.14029 33.5484 7.24457 33.6445 7.36871 33.7075C7.49286 33.7705 7.63202 33.7979 7.77077 33.7866C7.90952 33.7753 8.04245 33.7259 8.15482 33.6437L12.987 30.1082L17.8191 33.6437C17.9315 33.7259 18.0644 33.7753 18.2032 33.7866C18.3419 33.7979 18.4811 33.7705 18.6052 33.7075C18.7294 33.6445 18.8336 33.5484 18.9065 33.4298C18.9794 33.3111 19.018 33.1747 19.018 33.0354V24.4886C21.1147 23.3878 22.8709 21.7351 24.0968 19.709C25.3227 17.6829 25.9718 15.3603 25.9739 12.9922Z" fill="white"/>
<path d="M20.3302 10.0558L15.7234 9.38588L13.6629 5.21155C13.6008 5.08534 13.5045 4.97905 13.3851 4.90473C13.2656 4.83041 13.1277 4.79102 12.987 4.79102C12.8463 4.79102 12.7085 4.83041 12.589 4.90473C12.4696 4.97905 12.3733 5.08534 12.3111 5.21155L10.2507 9.38588L5.64382 10.0558C5.50469 10.0761 5.37403 10.135 5.26658 10.2257C5.15913 10.3164 5.07916 10.4353 5.03571 10.569C4.99225 10.7027 4.98704 10.8459 5.02065 10.9825C5.05427 11.119 5.12538 11.2434 5.22596 11.3417L8.55982 14.5907L7.7745 19.1803C7.75071 19.3189 7.76618 19.4615 7.81917 19.5918C7.87216 19.7221 7.96055 19.8349 8.07435 19.9176C8.18815 20.0003 8.32281 20.0495 8.46311 20.0597C8.60341 20.0698 8.74375 20.0405 8.86827 19.9751L12.987 17.8074L17.1075 19.9738C17.2319 20.0386 17.3719 20.0675 17.5117 20.0572C17.6516 20.0468 17.7858 19.9977 17.8993 19.9152C18.0128 19.8328 18.101 19.7203 18.154 19.5905C18.2071 19.4607 18.2228 19.3186 18.1996 19.1803L17.4142 14.5907L20.7481 11.3399C20.8487 11.2417 20.9198 11.1173 20.9534 10.9807C20.987 10.8442 20.9818 10.701 20.9384 10.5673C20.8949 10.4335 20.8149 10.3146 20.7075 10.2239C20.6 10.1333 20.4694 10.0744 20.3302 10.054V10.0558Z" fill="#2F2F2F"/>
</svg>
