<svg width="26" height="34" viewBox="0 0 26 34" fill="none" xmlns="http://www.w3.org/2000/svg">
<path d="M25.9739 12.9922C25.9749 10.6899 25.3637 8.42873 24.2032 6.44035C23.0426 4.45198 21.3743 2.80786 19.3692 1.67643C17.3641 0.545006 15.0943 -0.0330584 12.7923 0.00146015C10.4902 0.0359787 8.23874 0.681839 6.26847 1.87288C4.29819 3.06391 2.67995 4.75731 1.57952 6.77959C0.479099 8.80187 -0.0639551 11.0803 0.00599727 13.3816C0.0759497 15.6828 0.756394 17.9241 1.97762 19.8758C3.19885 21.8275 4.91696 23.4195 6.95593 24.4886V33.0354C6.95598 33.1747 6.99457 33.3111 7.06743 33.4298C7.14029 33.5484 7.24457 33.6445 7.36871 33.7075C7.49286 33.7705 7.63202 33.7979 7.77077 33.7866C7.90952 33.7754 8.04245 33.7259 8.15482 33.6437L12.987 30.1082L17.8191 33.6437C17.9315 33.7259 18.0644 33.7754 18.2032 33.7866C18.3419 33.7979 18.4811 33.7705 18.6052 33.7075C18.7294 33.6445 18.8336 33.5484 18.9065 33.4298C18.9794 33.3111 19.018 33.1747 19.018 33.0354V24.4886C21.1147 23.3878 22.8709 21.7351 24.0968 19.709C25.3227 17.6829 25.9718 15.3603 25.9739 12.9922ZM17.5102 31.5497L13.432 28.566C13.3029 28.4713 13.147 28.4203 12.987 28.4203C12.8269 28.4203 12.671 28.4713 12.542 28.566L8.46369 31.5497V25.165C11.3815 26.2505 14.5924 26.2505 17.5102 25.165V31.5497ZM12.987 24.4714C10.7165 24.4715 8.49694 23.7983 6.60906 22.5369C4.72118 21.2755 3.24974 19.4827 2.38082 17.385C1.5119 15.2874 1.28452 12.9792 1.72745 10.7523C2.17038 8.52541 3.26372 6.4799 4.8692 4.87441C6.47469 3.26893 8.5202 2.17559 10.7471 1.73266C12.9739 1.28973 15.2822 1.5171 17.3798 2.38602C19.4775 3.25494 21.2703 4.72638 22.5317 6.61427C23.7931 8.50215 24.4663 10.7217 24.4662 12.9922C24.4628 16.0356 23.2522 18.9534 21.1002 21.1054C18.9482 23.2575 16.0304 24.468 12.987 24.4714Z" fill="white"/>
<path d="M20.3302 10.0558L15.7234 9.38588L13.6629 5.21155C13.6008 5.08534 13.5045 4.97905 13.3851 4.90473C13.2656 4.83041 13.1277 4.79102 12.987 4.79102C12.8463 4.79102 12.7085 4.83041 12.589 4.90473C12.4696 4.97905 12.3733 5.08534 12.3111 5.21155L10.2507 9.38588L5.64382 10.0558C5.50469 10.0761 5.37403 10.135 5.26658 10.2257C5.15913 10.3164 5.07916 10.4353 5.03571 10.569C4.99225 10.7027 4.98704 10.8459 5.02065 10.9825C5.05427 11.119 5.12538 11.2434 5.22596 11.3417L8.55982 14.5907L7.7745 19.1803C7.75071 19.3189 7.76618 19.4615 7.81917 19.5918C7.87216 19.7221 7.96055 19.8349 8.07435 19.9176C8.18815 20.0003 8.32281 20.0495 8.46311 20.0597C8.60341 20.0698 8.74375 20.0405 8.86827 19.9751L12.987 17.8074L17.1075 19.9738C17.2319 20.0386 17.3719 20.0675 17.5117 20.0572C17.6516 20.0468 17.7858 19.9977 17.8993 19.9152C18.0128 19.8328 18.101 19.7203 18.154 19.5905C18.2071 19.4607 18.2228 19.3186 18.1996 19.1803L17.4142 14.5907L20.7481 11.3399C20.8487 11.2417 20.9198 11.1173 20.9534 10.9807C20.987 10.8442 20.9818 10.701 20.9384 10.5673C20.8949 10.4335 20.8149 10.3146 20.7075 10.2239C20.6 10.1333 20.4694 10.0744 20.3302 10.054V10.0558ZM16.0784 13.7877C15.9911 13.8731 15.9259 13.9785 15.8884 14.0948C15.8508 14.211 15.8421 14.3346 15.863 14.455L16.4575 17.931L13.3377 16.291C13.2296 16.2341 13.1092 16.2044 12.987 16.2044C12.8649 16.2044 12.7445 16.2341 12.6364 16.291L9.5166 17.931L10.1124 14.4571C10.1332 14.3368 10.1245 14.2131 10.087 14.0969C10.0495 13.9807 9.98426 13.8753 9.89699 13.7898L7.37386 11.33L10.8598 10.823C10.9808 10.8054 11.0957 10.7586 11.1946 10.6867C11.2935 10.6148 11.3735 10.52 11.4276 10.4103L12.987 7.24745L14.5465 10.4073C14.6005 10.5169 14.6804 10.6117 14.7793 10.6836C14.8781 10.7555 14.9929 10.8023 15.1138 10.82L18.6032 11.3266L16.0784 13.7877Z" fill="white"/>
</svg>
