<svg width="28" height="27" viewBox="0 0 28 27" fill="none" xmlns="http://www.w3.org/2000/svg">
<path d="M13.9997 0C9.677 0 6.16016 3.39124 6.16016 7.55963V11.2612C6.16016 11.5133 6.37229 11.7177 6.6337 11.7177H9.26181C9.52322 11.7177 9.73519 11.5133 9.73519 11.2612V7.55963C9.73519 5.29216 11.6482 3.4474 13.9997 3.4474C16.3511 3.4474 18.2641 5.29216 18.2641 7.55963V11.2612C18.2641 11.5133 18.4763 11.7177 18.7378 11.7177H21.3659C21.6273 11.7177 21.8393 11.5133 21.8393 11.2612V7.55963C21.8393 3.39124 18.3225 0 13.9997 0ZM20.8926 10.8047H19.2111V7.55963C19.2111 4.78876 16.8733 2.53447 13.9998 2.53447C11.1264 2.53447 8.7886 4.78876 8.7886 7.55963V10.8047H7.10707V7.55963C7.10707 3.89464 10.1991 0.91299 13.9998 0.91299C17.8005 0.91299 20.8926 3.89464 20.8926 7.55963V10.8047V10.8047Z" fill="white"/>
<path d="M22.4561 10.8047H5.54348C4.42212 10.8047 3.50977 11.6845 3.50977 12.7658V25.0389C3.50977 26.1202 4.42212 26.9999 5.54348 26.9999H22.4561C23.5775 26.9999 24.4897 26.1202 24.4897 25.0388V12.7658C24.4897 11.6845 23.5775 10.8047 22.4561 10.8047ZM23.543 25.0388C23.543 25.6168 23.0554 26.087 22.4561 26.087H5.54348C4.94411 26.087 4.45652 25.6168 4.45652 25.0388V12.7658C4.45652 12.1878 4.94411 11.7176 5.54348 11.7176H22.4561C23.0554 11.7176 23.543 12.1878 23.543 12.7658V25.0388Z" fill="white"/>
<path d="M15.5922 19.5006C16.1452 19.0512 16.4671 18.3943 16.4671 17.6884C16.4671 16.3767 15.3604 15.3096 14.0002 15.3096C12.6399 15.3096 11.5332 16.3767 11.5332 17.6884C11.5332 18.3943 11.855 19.0512 12.4082 19.5007L11.876 21.9456C11.8468 22.0802 11.8819 22.2204 11.9719 22.3271C12.0618 22.4338 12.1968 22.4959 12.3394 22.4959H15.661C15.8036 22.4959 15.9386 22.4339 16.0284 22.3271C16.1183 22.2203 16.1534 22.0802 16.1242 21.9457L15.5922 19.5006ZM14.8124 18.9226C14.6461 19.0247 14.5627 19.2154 14.6033 19.4014L15.0779 21.5829H12.9224L13.3972 19.4016C13.4377 19.2155 13.3545 19.0248 13.1881 18.9227C12.7447 18.6506 12.48 18.1891 12.48 17.6884C12.48 16.8802 13.1619 16.2226 14.0002 16.2226C14.8384 16.2226 15.5203 16.8802 15.5203 17.6884C15.5204 18.1892 15.2557 18.6506 14.8124 18.9226Z" fill="white"/>
</svg>
