<svg width="29" height="29" viewBox="0 0 29 29" fill="none" xmlns="http://www.w3.org/2000/svg">
<g clip-path="url(#clip0_227_138)">
<path d="M28.571 11.9862L25.061 11.1085C24.8749 10.5275 24.6424 9.96461 24.3671 9.42857L26.2272 6.32817C26.3608 6.10529 26.3257 5.82005 26.142 5.63631L23.3637 2.85803C23.1799 2.67423 22.8946 2.63917 22.6718 2.77284L19.5714 4.63292C19.0335 4.3568 18.4707 4.12423 17.8915 3.93885L17.0138 0.428996C16.9507 0.176889 16.7242 0 16.4643 0H12.5357C12.2758 0 12.0493 0.176889 11.9862 0.428996L11.1085 3.93879C10.5293 4.12417 9.96654 4.35674 9.42863 4.63286L6.32817 2.77278C6.10529 2.63911 5.82005 2.67417 5.63625 2.85797L2.85803 5.63625C2.67429 5.81999 2.63917 6.10529 2.77284 6.32812L4.63286 9.42851C4.35765 9.96456 4.12514 10.5274 3.93896 11.1084L0.428996 11.9862C0.176889 12.0493 0 12.2758 0 12.5357V16.4643C0 16.7242 0.176889 16.9507 0.428996 17.0138L3.93896 17.8915C4.12514 18.4725 4.35765 19.0354 4.63286 19.5714L2.77284 22.6718C2.63917 22.8947 2.67429 23.1799 2.85803 23.3637L5.63625 26.142C5.82011 26.3258 6.10529 26.3608 6.32817 26.2272L9.42868 24.367C9.96586 24.6426 10.5286 24.8751 11.1085 25.061L11.9862 28.5709C12.0493 28.8231 12.2758 28.9999 12.5357 28.9999H16.4642C16.7242 28.9999 16.9507 28.8231 17.0137 28.5709L17.8915 25.061C18.4713 24.8751 19.0341 24.6426 19.5713 24.367L22.6718 26.2272C22.8946 26.3608 23.1799 26.3257 23.3637 26.142L26.1419 23.3637C26.3257 23.1799 26.3608 22.8946 26.2271 22.6718L24.3671 19.5714C24.6423 19.0354 24.8748 18.4725 25.061 17.8915L28.5709 17.0138C28.8231 16.9507 28.9999 16.7242 28.9999 16.4643V12.5357C29 12.2758 28.8231 12.0493 28.571 11.9862ZM27.8672 16.0221L24.4752 16.8704C24.2793 16.9193 24.1244 17.0688 24.0684 17.2628C23.8611 17.9815 23.5759 18.6716 23.2208 19.3141C23.123 19.4908 23.1269 19.7062 23.2308 19.8794L25.0282 22.8754L22.8753 25.0283L19.8793 23.2309C19.7062 23.1271 19.491 23.1233 19.3142 23.2207C18.6695 23.5765 17.9793 23.8617 17.2627 24.0685C17.0687 24.1244 16.9192 24.2795 16.8702 24.4753L16.022 27.8672H12.978L12.1296 24.4752C12.0807 24.2793 11.9311 24.1244 11.7371 24.0684C11.0206 23.8617 10.3303 23.5765 9.6856 23.2207C9.50888 23.1232 9.29359 23.127 9.1205 23.2309L6.12449 25.0282L3.97175 22.8754L5.76913 19.8794C5.87301 19.7062 5.87686 19.4908 5.77916 19.3141C5.42408 18.6716 5.13889 17.9815 4.93159 17.2628C4.87562 17.0688 4.7206 16.9193 4.52474 16.8704L1.13281 16.0221V12.9779L4.52479 12.1296C4.72066 12.0807 4.87562 11.9312 4.93164 11.7372C5.13895 11.0185 5.42413 10.3284 5.77921 9.68594C5.87697 9.50917 5.87307 9.29376 5.76919 9.12056L3.97175 6.12455L6.12461 3.9717L9.12061 5.76907C9.29376 5.87295 9.50911 5.8768 9.68583 5.77921C10.3316 5.4226 11.0217 5.13742 11.7369 4.93164C11.9311 4.87579 12.0807 4.72071 12.1298 4.52474L12.978 1.13281H16.022L16.8704 4.52479C16.9193 4.72077 17.069 4.87579 17.2632 4.9317C17.9784 5.13747 18.6685 5.42266 19.3143 5.77927C19.491 5.87686 19.7064 5.87307 19.8795 5.76913L22.8755 3.97175L25.0284 6.12461L23.231 9.12061C23.1271 9.29382 23.1233 9.50922 23.221 9.686C23.576 10.3285 23.8612 11.0186 24.0685 11.7372C24.1245 11.9312 24.2795 12.0807 24.4754 12.1297L27.8672 12.9779V16.0221Z" fill="white"/>
<path d="M19.8242 19.8242C20.137 19.8242 20.3906 19.5706 20.3906 19.2578C20.3906 18.945 20.137 18.6914 19.8242 18.6914C19.5114 18.6914 19.2578 18.945 19.2578 19.2578C19.2578 19.5706 19.5114 19.8242 19.8242 19.8242Z" fill="white"/>
<path d="M8.5 18.5L19 9.5L16 7L12 8L8.5 10L7 13.5L8.5 18.5Z" fill="#76F4C3"/>
<path d="M14.5 6.79688C10.2525 6.79688 6.79688 10.2525 6.79688 14.5C6.79688 18.7475 10.2525 22.2031 14.5 22.2031C15.7435 22.2031 16.98 21.8985 18.0758 21.322C18.3526 21.1763 18.459 20.8338 18.3133 20.557C18.1675 20.2802 17.825 20.1738 17.5483 20.3194C16.6146 20.8107 15.5605 21.0703 14.5 21.0703C10.8771 21.0703 7.92969 18.1228 7.92969 14.5C7.92969 10.8772 10.8771 7.92969 14.5 7.92969C18.1229 7.92969 21.0703 10.8772 21.0703 14.5C21.0703 15.3199 20.9206 16.12 20.6253 16.8778C20.5117 17.1693 20.6559 17.4976 20.9474 17.6113C21.2392 17.7248 21.5673 17.5806 21.6808 17.2892C22.0274 16.3996 22.2031 15.4612 22.2031 14.5C22.2031 10.2525 18.7475 6.79688 14.5 6.79688Z" fill="white"/>
</g>
<defs>
<clipPath id="clip0_227_138">
<rect width="29" height="29" fill="white"/>
</clipPath>
</defs>
</svg>
