<svg width="28" height="30" viewBox="0 0 28 30" fill="none" xmlns="http://www.w3.org/2000/svg">
<path d="M27.2984 16.0298C27.2984 23.3939 21.3748 29.3571 14.0757 29.3571C6.7766 29.3571 0.853027 23.3939 0.853027 16.0298C0.853027 8.66566 6.7766 2.70238 14.0757 2.70238C21.3748 2.70238 27.2984 8.66566 27.2984 16.0298Z" stroke="black"/>
<path d="M6.31958 26.8512L21.2355 5.20833" stroke="black"/>
<path d="M5.25226 6.68089L22.8696 26.375" stroke="black"/>
<path d="M27.174 15.5407L0.949582 15.5407" stroke="black"/>
<path d="M16.5589 16.0297C16.5589 17.4173 15.4436 18.5357 14.0757 18.5357C12.7079 18.5357 11.5925 17.4173 11.5925 16.0297C11.5925 14.6422 12.7079 13.5238 14.0757 13.5238C15.4436 13.5238 16.5589 14.6422 16.5589 16.0297Z" fill="#76F4C3" stroke="black"/>
<path d="M13.479 7.0119L9.89917 1H17.0588L13.479 7.0119Z" fill="#76F4C3" stroke="black" stroke-linejoin="round"/>
</svg>
