<svg width="41" height="41" viewBox="0 0 41 41" fill="currentcolor" xmlns="http://www.w3.org/2000/svg">
<path fill-rule="evenodd" clip-rule="evenodd" d="M20.4795 40C15.2998 40 10.3486 37.9434 6.69238 34.2871C3.03613 30.6309 0.979492 25.6797 0.979492 20.5C0.979492 15.3203 3.03613 10.3691 6.69238 6.71289C10.3486 3.05664 15.2998 1 20.4795 1C25.6592 1 30.6104 3.05664 34.2666 6.71289C37.9229 10.3691 39.9795 15.3203 39.9795 20.5C39.9795 25.6797 37.9229 30.6309 34.2666 34.2871C30.6104 37.9434 25.6592 40 20.4795 40ZM20.4795 2.06641C10.3486 2.06641 2.0459 10.3691 2.0459 20.5C2.0459 30.6309 10.3486 38.9336 20.4795 38.9336C30.6104 38.9336 38.9131 30.6309 38.9131 20.5C38.9131 10.3691 30.6104 2.06641 20.4795 2.06641Z" fill="currentcolor" stroke="currentcolor" stroke-width="0.3"/>
<path fill-rule="evenodd" clip-rule="evenodd" d="M20.4795 33.2207C13.4717 33.2207 7.75879 27.5078 7.75879 20.5C7.75879 13.4922 13.4717 7.77931 20.4795 7.77931C27.4873 7.77931 33.2002 13.4922 33.2002 20.5C33.2002 27.5078 27.4873 33.2207 20.4795 33.2207ZM20.4795 8.84572C14.0811 8.84572 8.8252 14.1016 8.8252 20.5C8.8252 26.8985 14.0811 32.1543 20.4795 32.1543C26.8779 32.1543 32.1338 26.8985 32.1338 20.5C32.1338 14.1016 26.8779 8.84572 20.4795 8.84572Z" fill="currentcolor" stroke="currentcolor" stroke-width="0.3"/>
<path fill-rule="evenodd" clip-rule="evenodd" d="M20.4795 8.8457C20.1748 8.8457 19.9463 8.61719 19.9463 8.3125V1.5332C19.9463 1.22852 20.1748 1 20.4795 1C20.7842 1 21.0127 1.22852 21.0127 1.5332V8.3125C21.0127 8.61719 20.7842 8.8457 20.4795 8.8457Z" fill="currentcolor" stroke="currentcolor" stroke-width="0.3"/>
<path fill-rule="evenodd" clip-rule="evenodd" d="M28.4014 11.8164C28.249 11.8164 28.0967 11.7402 28.0205 11.664C27.792 11.4355 27.792 11.0547 28.0205 10.9023L32.8193 6.02733C33.0479 5.87498 33.3525 5.87498 33.5811 6.02733C33.8096 6.25584 33.8096 6.56053 33.5811 6.78905L28.7822 11.664C28.6299 11.7402 28.5537 11.8164 28.4014 11.8164Z" fill="currentcolor" stroke="currentcolor" stroke-width="0.3"/>
<path fill-rule="evenodd" clip-rule="evenodd" d="M39.3701 19.6621H32.5908C32.2861 19.6621 32.0576 19.4336 32.0576 19.1289C32.0576 18.9004 32.2861 18.5957 32.5908 18.5957H39.3701C39.6748 18.5957 39.9033 18.9004 39.9033 19.1289C39.9033 19.4336 39.6748 19.6621 39.3701 19.6621Z" fill="currentcolor" stroke="currentcolor" stroke-width="0.3"/>
<path fill-rule="evenodd" clip-rule="evenodd" d="M34.5713 33.7539C34.4189 33.7539 34.2666 33.6777 34.1904 33.6016L29.3154 28.8027C29.1631 28.5742 29.1631 28.2695 29.3154 28.041C29.5439 27.8125 29.9248 27.8125 30.0771 28.041L34.9521 32.8398C35.1045 33.0684 35.1045 33.373 34.9521 33.6016C34.7998 33.6777 34.6475 33.7539 34.5713 33.7539Z" fill="currentcolor" stroke="currentcolor" stroke-width="0.3"/>
<path fill-rule="evenodd" clip-rule="evenodd" d="M20.4795 40C20.1748 40 19.9463 39.7715 19.9463 39.4668V32.6875C19.9463 32.3828 20.1748 32.1543 20.4795 32.1543C20.7842 32.1543 21.0127 32.3828 21.0127 32.6875V39.4668C21.0127 39.7715 20.7842 40 20.4795 40Z" fill="currentcolor" stroke="currentcolor" stroke-width="0.3"/>
<path fill-rule="evenodd" clip-rule="evenodd" d="M6.3877 33.7539C6.31152 33.7539 6.15918 33.6777 6.00684 33.6016C5.85449 33.373 5.85449 33.0684 6.00684 32.8398L10.8818 28.041C11.0342 27.8125 11.415 27.8125 11.6436 28.041C11.7959 28.2695 11.7959 28.5742 11.6436 28.8027L6.76855 33.6016C6.69238 33.6777 6.54004 33.7539 6.3877 33.7539Z" fill="currentcolor" stroke="currentcolor" stroke-width="0.3"/>
<path fill-rule="evenodd" clip-rule="evenodd" d="M8.36816 19.6621H1.58887C1.28418 19.6621 1.05566 19.4336 1.05566 19.1289C1.05566 18.9004 1.28418 18.5957 1.58887 18.5957H8.36816C8.67285 18.5957 8.90137 18.9004 8.90137 19.1289C8.90137 19.4336 8.67285 19.6621 8.36816 19.6621Z" fill="currentcolor" stroke="currentcolor" stroke-width="0.3"/>
<path fill-rule="evenodd" clip-rule="evenodd" d="M12.5576 11.8164C12.4053 11.8164 12.3291 11.7402 12.1768 11.664L7.37793 6.78905C7.14941 6.6367 7.14941 6.25584 7.37793 6.02733C7.60645 5.87498 7.91113 5.87498 8.13965 6.02733L12.9385 10.9023C13.167 11.0547 13.167 11.4355 12.9385 11.664C12.8623 11.7402 12.71 11.8164 12.5576 11.8164Z" fill="currentcolor" stroke="currentcolor" stroke-width="0.3"/>
<path fill-rule="evenodd" clip-rule="evenodd" d="M35.1045 40H5.85449C5.5498 40 5.32129 39.7715 5.32129 39.4668C5.32129 39.1621 5.5498 38.9336 5.85449 38.9336H35.1045C35.4092 38.9336 35.6377 39.1621 35.6377 39.4668C35.6377 39.7715 35.4092 40 35.1045 40Z" fill="currentcolor" stroke="currentcolor" stroke-width="0.3"/>
<circle cx="20.4794" cy="20.5" r="2.63514" fill="currentcolor"/>
</svg>
