<svg width="25" height="25" viewBox="0 0 25 25" fill="none" xmlns="http://www.w3.org/2000/svg">
<g clip-path="url(#clip0_1359_235)">
<path d="M21.9842 18.5347H20.5209V16.6059C20.5209 16.3365 20.3025 16.1182 20.0332 16.1182C19.7638 16.1182 19.5454 16.3365 19.5454 16.6059V19.0224C19.5454 19.2918 19.7638 19.5102 20.0332 19.5102H21.9842C22.2536 19.5102 22.472 19.2918 22.472 19.0224C22.472 18.753 22.2536 18.5347 21.9842 18.5347Z" fill="white"/>
<path d="M3.47751 7.77436H10.2776C10.547 7.77436 10.7654 7.55599 10.7654 7.28659C10.7654 7.0172 10.547 6.79883 10.2776 6.79883H3.47751C3.20817 6.79883 2.98975 7.0172 2.98975 7.28659C2.98975 7.55599 3.20812 7.77436 3.47751 7.77436Z" fill="white"/>
<path d="M11.9736 15.5742H3.47751C3.20817 15.5742 2.98975 15.7926 2.98975 16.062C2.98975 16.3314 3.20817 16.5498 3.47751 16.5498H11.9737C12.243 16.5498 12.4614 16.3314 12.4614 16.062C12.4614 15.7926 12.243 15.5742 11.9736 15.5742Z" fill="white"/>
<path d="M11.9736 18.5H3.47751C3.20817 18.5 2.98975 18.7184 2.98975 18.9878C2.98975 19.2572 3.20817 19.4755 3.47751 19.4755H11.9737C12.243 19.4755 12.4614 19.2572 12.4614 18.9878C12.4614 18.7184 12.243 18.5 11.9736 18.5Z" fill="white"/>
<path d="M14.7163 12.6494H3.47751C3.20817 12.6494 2.98975 12.8678 2.98975 13.1372C2.98975 13.4066 3.20817 13.6249 3.47751 13.6249H14.7163C14.9856 13.6249 15.2041 13.4066 15.2041 13.1372C15.2041 12.8678 14.9856 12.6494 14.7163 12.6494Z" fill="white"/>
<path d="M23.5166 15.517C22.0625 14.0629 19.9181 13.71 18.1284 14.4576V5.83564C18.1284 5.47889 17.9895 5.1435 17.7372 4.89128L13.2376 0.391091C13.1328 0.286319 13.0108 0.200667 12.8786 0.136282C12.8741 0.133843 12.8694 0.131746 12.8649 0.129405C12.8643 0.129112 12.8637 0.128819 12.8631 0.128575C12.8487 0.121308 12.834 0.114772 12.8188 0.108967C12.6534 0.0381434 12.4741 0 12.2927 0H1.45212C0.673795 0 0.0405273 0.633219 0.0405273 1.4116V23.5884C0.0405273 24.3668 0.673746 25 1.45208 25H16.7167C17.462 25 18.0811 24.4173 18.126 23.6734C18.1266 23.6636 18.1269 23.6538 18.1269 23.644V23.5429C18.735 23.7972 19.384 23.9246 20.0331 23.9246C21.2947 23.9246 22.5562 23.4444 23.5166 22.484C24.4471 21.5535 24.9596 20.3164 24.9596 19.0005C24.9596 17.6846 24.4471 16.4475 23.5166 15.517V15.517ZM16.4631 4.99668H13.24C13.1802 4.99668 13.1317 4.94835 13.1317 4.88889V1.66489L16.4631 4.99668ZM17.1514 23.6266C17.1317 23.8507 16.9431 24.0245 16.7168 24.0245H1.45212C1.21166 24.0245 1.01611 23.8289 1.01611 23.5884V1.4116C1.01611 1.17113 1.2117 0.975534 1.45212 0.975534H12.1562V4.88889C12.1562 5.48625 12.6424 5.97222 13.24 5.97222H17.1529V15.0037C16.9416 15.1561 16.7397 15.327 16.5496 15.517C15.6192 16.4475 15.1067 17.6847 15.1067 19.0006C15.1067 20.3165 15.6192 21.5536 16.5496 22.4841C16.7392 22.6737 16.9407 22.8442 17.1514 22.9964V23.6266H17.1514ZM22.8268 21.7942C21.2863 23.3347 18.7798 23.3347 17.2394 21.7942C16.4931 21.048 16.0822 20.0558 16.0822 19.0006C16.0822 17.9453 16.4931 16.9531 17.2394 16.2069C18.0096 15.4366 19.0213 15.0515 20.0331 15.0515C21.0448 15.0515 22.0565 15.4366 22.8268 16.2069C23.573 16.9531 23.984 17.9453 23.984 19.0006C23.984 20.0558 23.573 21.048 22.8268 21.7942Z" fill="white"/>
<path d="M3.42868 10.7304H12.2286C12.498 10.7304 12.7164 10.512 12.7164 10.2426C12.7164 9.97326 12.498 9.75488 12.2286 9.75488H3.42868C3.15934 9.75488 2.94092 9.97326 2.94092 10.2426C2.94092 10.512 3.15929 10.7304 3.42868 10.7304V10.7304Z" fill="white"/>
<path d="M14.6565 10.7309C14.926 10.7309 15.1445 10.5124 15.1445 10.2429C15.1445 9.97337 14.926 9.75488 14.6565 9.75488C14.3869 9.75488 14.1685 9.97337 14.1685 10.2429C14.1685 10.5124 14.3869 10.7309 14.6565 10.7309Z" fill="white"/>
</g>
<defs>
<clipPath id="clip0_1359_235">
<rect width="25" height="25" fill="white"/>
</clipPath>
</defs>
</svg>
